<svg width="20" height="25" viewBox="0 0 20 25" fill="none" xmlns="http://www.w3.org/2000/svg">
<g clip-path="url(#clip0_182_1047)">
<path d="M13.1386 0.370111V1.6512C13.1386 2.73061 13.1321 3.81107 13.1386 4.89049C13.1482 6.2489 13.9435 7.03155 15.3315 7.03782C16.6712 7.04409 18.011 7.03782 19.3497 7.03782H19.9982V7.64807C19.9982 12.4548 19.9982 17.2614 19.9982 22.0681C19.9982 23.5958 19.2318 24.3419 17.6627 24.3429C12.5544 24.3429 7.44545 24.3429 2.33577 24.3429C0.764494 24.3429 -0.00292969 23.5969 -0.00292969 22.0713C-0.00292969 15.5927 -0.00292969 9.1141 -0.00292969 2.63552C-0.00292969 1.09947 0.758072 0.34817 2.31756 0.347125C5.72878 0.347125 9.14035 0.347125 12.5523 0.347125C12.7345 0.345035 12.9049 0.359661 13.1386 0.370111ZM10.0014 17.0723H13.0024C13.9124 17.0723 14.8245 17.0817 15.7323 17.0629C16.2307 17.0535 16.5437 16.7327 16.5608 16.2834C16.578 15.8341 16.2865 15.4924 15.8106 15.4213C15.6326 15.4031 15.4535 15.3975 15.2747 15.4046H6.12249C5.53406 15.4046 4.9435 15.3889 4.35614 15.4046C3.71306 15.4286 3.32506 15.88 3.46868 16.4359C3.59301 16.9166 3.95851 17.0713 4.44082 17.0692C6.29077 17.0671 8.14606 17.0713 10.0014 17.0723ZM10.056 19.3262C8.16535 19.3262 6.27361 19.3262 4.38294 19.3262C3.72485 19.3262 3.34863 19.7442 3.45473 20.3137C3.53941 20.7651 3.8974 20.9887 4.56407 20.9887C7.47297 20.9887 10.3811 20.9887 13.2886 20.9887C14.056 20.9887 14.8234 20.9981 15.5898 20.9887C16.175 20.9793 16.5212 20.6888 16.5544 20.2196C16.5951 19.6742 16.2254 19.3294 15.5662 19.3273C13.7313 19.322 11.8931 19.3252 10.055 19.3262H10.056ZM4.81808 12.7275C5.1214 12.5425 5.37543 12.4433 5.55442 12.2698C7.40437 10.4837 9.24539 8.68916 11.0775 6.88631C11.2261 6.74163 11.3333 6.56149 11.3883 6.36384C11.4378 6.19339 11.423 6.01127 11.3465 5.85058C11.27 5.68988 11.1369 5.56129 10.9714 5.48819C10.5512 5.2792 10.1889 5.40355 9.8631 5.7233C8.31755 7.24054 6.76772 8.75326 5.21359 10.2614C4.88562 10.5812 4.50191 10.8654 4.24896 11.2364C4.1667 11.3695 4.1128 11.5174 4.09052 11.6712C4.06824 11.8251 4.07803 11.9818 4.11928 12.1319C4.2061 12.3659 4.55548 12.5185 4.81808 12.7275ZM11.712 11.5237C11.7153 11.3405 11.6808 11.1585 11.6107 10.9884C11.5406 10.8184 11.4362 10.6638 11.3036 10.5338C11.1711 10.4039 11.0132 10.3011 10.8392 10.2317C10.6652 10.1623 10.4787 10.1277 10.2907 10.1298C10.1029 10.1276 9.91653 10.1618 9.74241 10.2305C9.5683 10.2992 9.40995 10.401 9.27658 10.53C9.14322 10.6589 9.03749 10.8124 8.96559 10.9816C8.89368 11.1508 8.85703 11.3322 8.85775 11.5154C8.86133 11.8754 9.00897 12.2199 9.26923 12.4754C9.5295 12.7309 9.88181 12.8772 10.2511 12.8832C10.4392 12.89 10.6267 12.8601 10.8027 12.7951C10.9787 12.73 11.1395 12.6313 11.2757 12.5047C11.4119 12.378 11.5207 12.2261 11.5956 12.0578C11.6705 11.8895 11.7101 11.7082 11.712 11.5248V11.5237ZM5.14176 5.11097C4.95388 5.10931 4.76754 5.14404 4.59353 5.21315C4.41952 5.28226 4.26131 5.38437 4.1281 5.51356C3.99489 5.64275 3.88932 5.79645 3.81752 5.96573C3.74572 6.13501 3.70912 6.3165 3.70984 6.49969C3.7119 6.68293 3.75137 6.86395 3.82594 7.03217C3.90052 7.20039 4.00868 7.35245 4.14416 7.47948C4.27965 7.60651 4.43974 7.70596 4.61507 7.77204C4.7904 7.83813 4.97744 7.86951 5.16534 7.86437C5.53489 7.8622 5.88878 7.71861 6.1508 7.46453C6.41282 7.21046 6.562 6.86622 6.56621 6.50596C6.56879 6.32265 6.53376 6.14068 6.46316 5.97077C6.39256 5.80085 6.28781 5.64642 6.15509 5.51654C6.02238 5.38667 5.86435 5.28397 5.69033 5.2145C5.51632 5.14503 5.3298 5.11019 5.14176 5.11201V5.11097Z" fill="#F1F7F8"/>
<path d="M19.7548 5.36778H17.7398C16.9359 5.36778 16.1321 5.36778 15.3293 5.36778C15.0678 5.36778 14.8556 5.31345 14.8545 5.00937C14.8545 3.53602 14.8545 2.06266 14.9349 0.534973C16.6787 2.00519 18.2661 3.60603 19.8652 5.19641L19.7548 5.36778Z" fill="#F1F7F8"/>
</g>
<defs>
<clipPath id="clip0_182_1047">
<rect width="20" height="24" fill="white" transform="translate(0 0.34375)"/>
</clipPath>
</defs>
</svg>
