<svg width="21" height="21" viewBox="0 0 21 21" fill="none" xmlns="http://www.w3.org/2000/svg">
<path d="M10.4988 21C4.70176 20.9992 0 16.2966 0 10.4988C0 4.70176 4.7034 0 10.5012 0C16.3155 0 21.0074 4.71161 20.9992 10.5423C20.9926 16.3056 16.2785 21 10.4988 21ZM11.8787 12.3455C11.8787 11.4578 11.8918 10.5693 11.8746 9.68164C11.8582 8.82267 11.2576 8.20409 10.4889 8.21229C9.73005 8.22049 9.13361 8.82432 9.12541 9.66195C9.10736 11.4373 9.11474 13.2135 9.12294 14.9889C9.1254 15.4434 9.278 15.8495 9.65457 16.1358C10.0959 16.4713 10.5866 16.5222 11.0821 16.295C11.6383 16.0398 11.8689 15.5574 11.8754 14.9684C11.8869 14.0946 11.8787 13.2201 11.8787 12.3455ZM10.5217 4.74606C9.72184 4.73786 9.19432 5.21698 9.1853 5.95945C9.17545 6.71833 9.68656 7.22616 10.4651 7.23026C11.256 7.23436 11.8081 6.73802 11.8155 6.01688C11.8213 5.27277 11.2946 4.75427 10.5217 4.74606Z" fill="white"/>
</svg>
