<svg width="18" height="23" viewBox="0 0 18 23" fill="none" xmlns="http://www.w3.org/2000/svg">
<g clip-path="url(#clip0_447_1325)">
<path d="M2.91737 22.1925C2.91737 22.1925 2.91737 22.1898 2.91737 22.188C2.91565 22.1701 2.91479 22.1503 2.91479 22.1315C2.91479 22.1521 2.91651 22.1727 2.91822 22.1925H2.91737Z" fill="white"/>
<path d="M2.91748 22.1943C2.92005 22.2158 2.92348 22.2373 2.92777 22.2571C2.92519 22.2472 2.92348 22.2373 2.92177 22.2275C2.91919 22.2167 2.91834 22.2059 2.91748 22.1943Z" fill="white"/>
<path d="M0 11.1521C0 7.99646 0 4.83995 0 1.68434C0 0.674041 0.561375 0.307068 1.42615 0.750307C1.99952 1.0446 2.52833 0.958468 3.028 0.560988C3.96048 -0.181034 4.39501 -0.182829 5.31549 0.543941C5.96686 1.05806 6.57966 1.05627 7.2336 0.538557C8.14122 -0.180137 8.57661 -0.17924 9.4851 0.542146C10.1365 1.05896 10.745 1.05896 11.4041 0.542146C12.3297 -0.184623 12.7556 -0.181034 13.6907 0.564577C14.2221 0.988077 14.7749 1.03653 15.3705 0.709931C16.0853 0.317835 16.7127 0.71352 16.7127 1.55603C16.7161 7.16472 16.7153 12.7743 16.7127 18.383C16.7127 19.0757 16.3802 19.4094 15.6996 19.4094C11.686 19.4103 7.67156 19.4094 3.65794 19.4094C2.44605 19.4094 1.77497 19.8966 1.36187 21.0801C1.22988 21.4587 0.994191 21.6884 0.592229 21.6463C0.213408 21.6068 0.000857061 21.2963 0.000857061 20.8002C0 17.5835 0 14.3678 0 11.1521ZM8.35035 7.24547V7.24368C9.90506 7.24368 11.4598 7.25265 13.0136 7.23919C13.5836 7.23381 13.9264 6.86414 13.9187 6.33387C13.911 5.81975 13.5776 5.49135 13.0273 5.45636C12.9416 5.45098 12.8559 5.45367 12.7711 5.45367C9.83306 5.45367 6.89506 5.45367 3.95705 5.45457C3.80107 5.45457 3.64165 5.45636 3.48824 5.48328C3.07685 5.55506 2.80859 5.88704 2.79573 6.32041C2.77945 6.88119 3.14284 7.23919 3.77193 7.24278C5.29835 7.25175 6.82392 7.24547 8.35035 7.24547ZM8.40091 9.49307C6.93191 9.49307 5.46291 9.49307 3.99391 9.49307C3.17541 9.49307 2.78288 9.79544 2.79573 10.411C2.80859 11.004 3.19084 11.2858 3.99219 11.2858C6.90191 11.2858 9.81078 11.2858 12.7205 11.2849C12.8911 11.2849 13.0642 11.284 13.2313 11.2544C13.6247 11.1862 13.8878 10.8694 13.9152 10.4567C13.953 9.87709 13.5836 9.50025 12.9356 9.49666C11.4238 9.48769 9.91191 9.49397 8.40006 9.49307H8.40091ZM6.18627 15.3216C6.18627 15.3216 6.18627 15.3225 6.18627 15.3234C7.02705 15.3234 7.86782 15.3341 8.70774 15.3198C9.28454 15.3099 9.62994 14.9627 9.63337 14.4351C9.6368 13.9057 9.29397 13.5423 8.72146 13.5388C7.05447 13.5262 5.38749 13.5217 3.7205 13.5477C3.4771 13.5513 3.13856 13.6742 3.02028 13.8627C2.8703 14.1013 2.81545 14.4827 2.87373 14.768C2.95086 15.1466 3.2894 15.3171 3.66479 15.3198C4.50557 15.3252 5.34635 15.3216 6.18713 15.3216H6.18627Z" fill="white"/>
<path d="M1.74316 22.9991C2.30968 22.6519 2.55309 22.1611 2.5968 21.4917C2.62422 21.0709 2.93619 20.817 3.35101 20.7614C3.47786 20.7443 3.60727 20.7569 3.73583 20.7569C8.08799 20.7569 12.441 20.7569 16.7932 20.7569C17.6159 20.7569 17.9948 21.0431 17.9999 21.6685C18.0059 22.3737 17.4514 22.9641 16.7529 22.9973C16.71 22.9991 16.6672 22.9973 16.6243 22.9973C11.7442 22.9973 6.86325 22.9973 1.98314 22.9973H1.74316V22.9991Z" fill="white"/>
</g>
<defs>
<clipPath id="clip0_447_1325">
<rect width="18" height="23" fill="white"/>
</clipPath>
</defs>
</svg>
