<svg width="20" height="24" viewBox="0 0 20 24" fill="none" xmlns="http://www.w3.org/2000/svg">
<g clip-path="url(#clip0_168_3017)">
<path d="M13.1386 0.0263607V1.30745C13.1386 2.38686 13.1321 3.46732 13.1386 4.54674C13.1482 5.90515 13.9435 6.6878 15.3315 6.69407C16.6712 6.70034 18.011 6.69407 19.3497 6.69407H19.9982V7.30432C19.9982 12.111 19.9982 16.9177 19.9982 21.7244C19.9982 23.2521 19.2318 23.9981 17.6627 23.9992C12.5544 23.9992 7.44545 23.9992 2.33577 23.9992C0.764494 23.9992 -0.00292969 23.2531 -0.00292969 21.7275C-0.00292969 15.2489 -0.00292969 8.77035 -0.00292969 2.29177C-0.00292969 0.755722 0.758072 0.00442015 2.31756 0.00337522C5.72878 0.00337522 9.14035 0.00337522 12.5523 0.00337522C12.7345 0.00128535 12.9049 0.0159113 13.1386 0.0263607ZM10.0014 16.7286H13.0024C13.9124 16.7286 14.8245 16.738 15.7323 16.7192C16.2307 16.7097 16.5437 16.389 16.5608 15.9396C16.578 15.4903 16.2865 15.1486 15.8106 15.0776C15.6326 15.0593 15.4535 15.0537 15.2747 15.0608H6.12249C5.53406 15.0608 4.9435 15.0452 4.35614 15.0608C3.71306 15.0849 3.32506 15.5363 3.46868 16.0922C3.59301 16.5729 3.95851 16.7275 4.44082 16.7254C6.29077 16.7233 8.14606 16.7275 10.0014 16.7286ZM10.056 18.9825C8.16535 18.9825 6.27361 18.9825 4.38294 18.9825C3.72485 18.9825 3.34863 19.4004 3.45473 19.9699C3.53941 20.4213 3.8974 20.645 4.56407 20.645C7.47297 20.645 10.3811 20.645 13.2886 20.645C14.056 20.645 14.8234 20.6544 15.5898 20.645C16.175 20.6356 16.5212 20.3451 16.5544 19.8759C16.5951 19.3304 16.2254 18.9856 15.5662 18.9835C13.7313 18.9783 11.8931 18.9814 10.055 18.9825H10.056ZM4.81808 12.3837C5.1214 12.1988 5.37543 12.0995 5.55442 11.926C7.40437 10.1399 9.24539 8.34541 11.0775 6.54256C11.2261 6.39788 11.3333 6.21774 11.3883 6.02009C11.4378 5.84964 11.423 5.66752 11.3465 5.50683C11.27 5.34613 11.1369 5.21754 10.9714 5.14444C10.5512 4.93545 10.1889 5.0598 9.8631 5.37955C8.31755 6.89679 6.76772 8.40951 5.21359 9.91769C4.88562 10.2374 4.50191 10.5217 4.24896 10.8926C4.1667 11.0257 4.1128 11.1736 4.09052 11.3275C4.06824 11.4813 4.07803 11.638 4.11928 11.7881C4.2061 12.0222 4.55548 12.1747 4.81808 12.3837ZM11.712 11.18C11.7153 10.9967 11.6808 10.8147 11.6107 10.6447C11.5406 10.4747 11.4362 10.3201 11.3036 10.1901C11.1711 10.0601 11.0132 9.95738 10.8392 9.88797C10.6652 9.81857 10.4787 9.78391 10.2907 9.78603C10.1029 9.78381 9.91653 9.81804 9.74241 9.88675C9.5683 9.95545 9.40995 10.0572 9.27658 10.1862C9.14322 10.3152 9.03749 10.4687 8.96559 10.6379C8.89368 10.807 8.85703 10.9885 8.85775 11.1716C8.86133 11.5317 9.00897 11.8761 9.26923 12.1316C9.5295 12.3871 9.88181 12.5334 10.2511 12.5394C10.4392 12.5463 10.6267 12.5163 10.8027 12.4513C10.9787 12.3863 11.1395 12.2875 11.2757 12.1609C11.4119 12.0343 11.5207 11.8823 11.5956 11.714C11.6705 11.5457 11.7101 11.3645 11.712 11.181V11.18ZM5.14176 4.76722C4.95388 4.76556 4.76754 4.80029 4.59353 4.8694C4.41952 4.93851 4.26131 5.04062 4.1281 5.16981C3.99489 5.299 3.88932 5.4527 3.81752 5.62198C3.74572 5.79126 3.70912 5.97275 3.70984 6.15594C3.7119 6.33918 3.75137 6.5202 3.82594 6.68842C3.90052 6.85664 4.00868 7.0087 4.14416 7.13573C4.27965 7.26276 4.43974 7.36221 4.61507 7.42829C4.7904 7.49438 4.97744 7.52576 5.16534 7.52062C5.53489 7.51845 5.88878 7.37486 6.1508 7.12078C6.41282 6.86671 6.562 6.52247 6.56621 6.16221C6.56879 5.9789 6.53376 5.79693 6.46316 5.62702C6.39256 5.4571 6.28781 5.30267 6.15509 5.17279C6.02238 5.04292 5.86435 4.94022 5.69033 4.87075C5.51632 4.80128 5.3298 4.76644 5.14176 4.76826V4.76722Z" fill="#F1F7F8"/>
<path d="M19.7547 5.02397H17.7397C16.9359 5.02397 16.132 5.02397 15.3292 5.02397C15.0677 5.02397 14.8555 4.96964 14.8544 4.66556C14.8544 3.19221 14.8544 1.71885 14.9348 0.191162C16.6787 1.66138 18.266 3.26222 19.8651 4.8526L19.7547 5.02397Z" fill="#F1F7F8"/>
</g>
<defs>
<clipPath id="clip0_168_3017">
<rect width="20" height="24" fill="white"/>
</clipPath>
</defs>
</svg>
