<svg width="31" height="31" viewBox="0 0 31 31" fill="none" xmlns="http://www.w3.org/2000/svg">
<path fill-rule="evenodd" clip-rule="evenodd" d="M6.51819 27.4989H10.5289C12.9269 27.4902 14.6427 25.7892 14.6489 23.3924C14.6605 19.4991 14.6605 15.6059 14.6489 11.7126C14.6489 9.32573 12.9095 7.62968 10.5127 7.62223H6.46474V4.44136C6.46474 4.30392 6.46339 4.16638 6.46204 4.02882V4.02881C6.45873 3.69007 6.45541 3.35125 6.4722 3.01369C6.53557 1.75873 7.53207 0.687677 8.782 0.67898C12.1909 0.653401 15.6007 0.663207 19.012 0.673017C19.7435 0.675121 20.4751 0.677224 21.2068 0.67898C21.2678 0.694349 21.3266 0.717306 21.3819 0.747317V3.68341C21.3819 4.05544 21.3809 4.42746 21.38 4.79948L21.38 4.80169C21.378 5.5472 21.3761 6.29272 21.3819 7.03824C21.3956 8.55909 22.4418 9.60281 23.9713 9.61027C25.3571 9.61687 26.7429 9.61471 28.1546 9.61251H28.1551C28.8707 9.61139 29.593 9.61027 30.3253 9.61027V10.2986V27.694C30.3253 29.5031 29.3313 30.4922 27.5222 30.4922H9.13357C7.39162 30.4823 6.31939 29.2807 6.51819 27.4989ZM18.9429 24.4958C18.9226 24.4389 18.9076 24.3802 18.8982 24.3206C18.8982 23.1613 18.8982 22.002 18.8895 20.8415C18.8895 20.0152 18.5168 19.5443 17.8844 19.553C17.2519 19.5617 16.909 20.0289 16.9065 20.8701V22.919V24.5045C16.6886 24.5049 16.4709 24.517 16.2542 24.5405C16.0164 24.5777 15.8005 24.7008 15.6474 24.8865C15.4942 25.0722 15.4143 25.3076 15.423 25.5482C15.4603 26.0663 15.7572 26.3807 16.2592 26.49C16.4027 26.5114 16.5481 26.5172 16.6928 26.5074H26.0723H26.3817C26.9308 26.4552 27.3222 26.0576 27.3358 25.5444C27.3403 25.2931 27.2494 25.0493 27.0813 24.8624C26.9132 24.6754 26.6806 24.559 26.4301 24.5368C26.3075 24.5205 26.1837 24.5154 26.0453 24.5098H26.0452C25.983 24.5072 25.9179 24.5046 25.8486 24.5007V13.0359C25.8597 12.8499 25.8551 12.6633 25.835 12.478C25.7381 11.9425 25.4113 11.6157 24.8633 11.6083C24.3154 11.6008 23.9849 11.9313 23.8793 12.4619C23.8563 12.6469 23.8512 12.8338 23.8644 13.0198V24.4684H22.3734V16.8443C22.3734 16.0428 22.0268 15.5943 21.4105 15.5756C20.7942 15.557 20.3917 16.0354 20.3917 16.8505V23.8086V24.4958H18.9429ZM14.8527 4.63643H18.2074C18.9367 4.63643 19.384 4.24752 19.3853 3.64241C19.3865 3.03729 18.9367 2.64838 18.2086 2.64838C16.0161 2.64341 13.821 2.64341 11.6235 2.64838C10.8967 2.64838 10.4456 3.03978 10.4456 3.64241C10.4456 4.24503 10.8954 4.62897 11.6223 4.63643C12.3438 4.63974 13.061 4.63864 13.7778 4.63753C14.136 4.63698 14.4942 4.63643 14.8527 4.63643ZM17.3712 8.61445H17.3713C17.675 8.61638 17.9791 8.61832 18.2832 8.61252C18.9529 8.59636 19.3915 8.18882 19.384 7.6098C19.3765 7.05191 18.9517 6.6456 18.318 6.63566C17.3675 6.62075 16.4158 6.61951 15.4603 6.63566C14.8391 6.64684 14.4129 7.07924 14.4216 7.63589C14.4303 8.19254 14.8552 8.5914 15.4876 8.61004C15.8167 8.61946 16.1451 8.61707 16.4734 8.61467C16.6211 8.61359 16.7688 8.61252 16.9165 8.61252C17.0679 8.61252 17.2195 8.61348 17.3712 8.61445ZM12.4323 17.5599V23.2681C12.4323 24.7106 11.6433 25.5108 10.2232 25.5133C7.72081 25.5183 5.21808 25.5183 2.71491 25.5133C1.29352 25.5133 0.503296 24.7106 0.503296 23.2768V11.8592C0.503296 10.4166 1.29103 9.62262 2.71242 9.61392H10.2207C11.6445 9.61392 12.4298 10.4141 12.4323 11.8505C12.4348 13.7532 12.4348 15.6563 12.4323 17.5599ZM6.16527 15.0748C6.38597 15.0748 6.60667 15.0761 6.82742 15.0773C7.26905 15.0798 7.71086 15.0823 8.15323 15.0748C8.79062 15.0599 9.20185 14.6648 9.20806 14.097C9.21427 13.5291 8.80676 13.1029 8.17434 13.1029C6.89211 13.0864 5.60822 13.0864 4.32267 13.1029C3.70143 13.1092 3.26158 13.5316 3.25412 14.0796C3.24667 14.6275 3.68653 15.0599 4.30155 15.0736C4.69443 15.0823 5.09238 15.0794 5.49054 15.0765C5.71567 15.0748 5.94088 15.0731 6.16527 15.0736V15.0748ZM4.48295 19.0509C5.19365 19.0509 5.6695 18.6608 5.67944 18.0743C5.69062 17.4667 5.2011 17.0641 4.45189 17.0666C3.73995 17.0666 3.26658 17.4568 3.2554 18.0432C3.24422 18.6508 3.73498 19.0522 4.48295 19.0497V19.0509ZM8.0302 19.0509C8.75953 19.0509 9.19936 18.6782 9.20557 18.0693C9.21179 17.4369 8.75706 17.0629 7.98797 17.0666C7.25615 17.0666 6.82005 17.4394 6.81508 18.0494C6.80887 18.6844 7.25738 19.0546 8.0302 19.0497V19.0509ZM4.47549 20.0449C3.73 20.0449 3.23303 20.4525 3.2554 21.0613C3.27155 21.6466 3.74614 22.028 4.46056 22.0293C5.20605 22.0293 5.70305 21.6205 5.67944 21.0129C5.66329 20.4301 5.18991 20.0499 4.47549 20.0474V20.0449ZM7.99295 22.033C8.7608 22.033 9.21427 21.6602 9.20557 21.0265C9.19688 20.4177 8.7558 20.0524 8.02522 20.0487C7.25489 20.0487 6.80638 20.4214 6.81508 21.0551C6.82378 21.6677 7.25864 22.0293 7.99295 22.0317V22.033ZM23.9853 7.62221H29.5367L23.364 1.44809C23.364 2.06266 23.3632 2.68161 23.3624 3.30353C23.3607 4.55636 23.359 5.82125 23.364 7.08668C23.3715 7.47311 23.6212 7.62221 23.9853 7.62221Z" fill="url(#paint0_linear_154_534)"/>
<defs>
<linearGradient id="paint0_linear_154_534" x1="-0.0675468" y1="0.662682" x2="31.7979" y2="1.15617" gradientUnits="userSpaceOnUse">
<stop stop-color="#003846"/>
<stop offset="1" stop-color="#007491"/>
</linearGradient>
</defs>
</svg>
