<svg width="14" height="15" viewBox="0 0 14 15" fill="none" xmlns="http://www.w3.org/2000/svg">
<path d="M1.65559 2.11108C1.65559 2.6447 1.63521 3.15426 1.66348 3.66032C1.67493 3.94148 1.73775 4.2177 1.84848 4.47387C2.06215 4.93444 2.45831 5.1667 2.94053 5.17676C3.35292 5.18594 3.77736 5.19513 4.17686 5.1059C4.75885 4.97468 5.1255 4.42444 5.13298 3.79066C5.1388 3.30953 5.13298 2.8284 5.13298 2.34727V2.11896H8.86728C8.8706 2.185 8.87642 2.25411 8.87684 2.32278C8.87684 2.78948 8.87684 3.25574 8.87684 3.72243C8.87933 4.45725 9.26761 5.02017 9.95144 5.14001C10.3886 5.21488 10.8342 5.21606 11.2717 5.14351C11.9518 5.02892 12.3451 4.46862 12.3547 3.72855C12.3605 3.27673 12.3547 2.82491 12.3547 2.37264V2.14039C12.8705 2.09053 13.4355 2.61102 13.487 3.16126C13.4978 3.27717 13.502 3.39395 13.502 3.51117C13.502 6.7187 13.502 9.92536 13.502 13.1311C13.502 13.4417 13.4712 13.7409 13.2912 14.0024C13.0314 14.3803 12.6772 14.5496 12.2391 14.5492C11.0341 14.5474 9.82853 14.5474 8.62243 14.5492C6.33632 14.5492 4.04993 14.5492 1.76326 14.5492C1.14801 14.5492 0.693637 14.2036 0.541488 13.6105C0.508191 13.4546 0.494218 13.2948 0.499918 13.1351C0.497423 9.92755 0.497423 6.72074 0.499918 3.51467C0.499918 2.78554 0.783013 2.35296 1.38246 2.15876C1.47241 2.13659 1.56365 2.12066 1.65559 2.11108ZM6.99743 13.1998C8.44533 13.1998 9.89324 13.1893 11.3412 13.2064C11.7631 13.2116 11.968 12.9339 11.9647 12.5577C11.9503 10.9248 11.9503 9.29187 11.9647 7.65895C11.9689 7.22637 11.7257 6.99761 11.3482 6.99849C8.44533 7.00505 5.54245 7.00111 2.63956 7.00286C2.21263 7.00286 2.02349 7.20931 2.02307 7.66288C2.02307 9.28881 2.02307 10.9144 2.02307 12.5398C2.02307 13.0109 2.2039 13.1989 2.6537 13.1989C4.10147 13.2001 5.54938 13.2004 6.99743 13.1998Z" fill="#33606B"/>
<path d="M2.51953 2.41814C2.51953 1.98863 2.51953 1.55867 2.51953 1.12915C2.51953 0.731566 2.68872 0.553111 3.05995 0.551361C3.28859 0.551361 3.51723 0.551361 3.74545 0.551361C4.0564 0.55486 4.25137 0.731128 4.25469 1.0548C4.26384 1.95874 4.26384 2.86268 4.25469 3.76662C4.25178 4.09423 4.06471 4.27093 3.75252 4.27574C3.51016 4.27968 3.2678 4.27924 3.02586 4.27574C2.69329 4.27093 2.52161 4.08898 2.51953 3.73032C2.51953 3.29205 2.51953 2.8551 2.51953 2.41814Z" fill="#33606B"/>
<path d="M11.4672 2.41025C11.4672 2.83977 11.4672 3.26929 11.4672 3.6988C11.4652 4.11389 11.3101 4.2731 10.9098 4.27485C10.6816 4.27485 10.4525 4.27835 10.2247 4.27485C9.92123 4.26829 9.74705 4.08852 9.74622 3.77272C9.74345 2.86878 9.74345 1.96601 9.74622 1.0644C9.74622 0.737232 9.9233 0.557027 10.2388 0.552653C10.4883 0.549591 10.7377 0.548716 10.9871 0.552653C11.2877 0.557902 11.4631 0.738107 11.4672 1.05653C11.4726 1.50791 11.4672 1.9593 11.4672 2.41244V2.41025Z" fill="#33606B"/>
<path d="M7.00527 9.698C6.83899 9.698 6.67271 9.7015 6.50642 9.698C6.30231 9.69232 6.18301 9.5786 6.1776 9.36165C6.16887 9.00561 6.16846 8.6487 6.1776 8.2931C6.18301 8.08184 6.30231 7.95806 6.51017 7.95238C6.84273 7.94275 7.17433 7.94275 7.50495 7.95238C7.71904 7.95894 7.83088 8.08666 7.83503 8.31716C7.84168 8.65862 7.84168 9.00036 7.83503 9.3424C7.83004 9.58209 7.7124 9.69232 7.48127 9.69844C7.3233 9.70063 7.16449 9.698 7.00527 9.698Z" fill="#33606B"/>
<path d="M4.37947 9.69806C4.22067 9.69806 4.06146 9.70024 3.90265 9.69806C3.66612 9.69412 3.55596 9.58827 3.55222 9.34815C3.5464 8.99823 3.5464 8.64934 3.55222 8.30147C3.55596 8.08496 3.66445 7.96074 3.87106 7.95418C4.20363 7.94325 4.53411 7.94543 4.86543 7.95418C5.06705 7.95855 5.19301 8.07927 5.198 8.29185C5.20922 8.64744 5.21338 9.00435 5.198 9.35952C5.1876 9.60708 5.07328 9.69762 4.83259 9.70112C4.68335 9.69981 4.5312 9.69806 4.37947 9.69806Z" fill="#33606B"/>
<path d="M10.4624 8.83378C10.4624 9.00873 10.467 9.18369 10.4624 9.35864C10.4549 9.58084 10.3493 9.69456 10.1423 9.69762C9.80389 9.70243 9.46551 9.70112 9.12713 9.69762C8.96084 9.69762 8.83614 9.61014 8.83032 9.43038C8.81743 9.03279 8.81743 8.63389 8.82782 8.23586C8.83281 8.04253 8.97373 7.95768 9.13918 7.95287C9.47175 7.94237 9.80431 7.94281 10.1336 7.95287C10.3493 7.95899 10.4537 8.08409 10.4636 8.3124C10.4636 8.32684 10.4636 8.34171 10.4636 8.35614V8.83727L10.4624 8.83378Z" fill="#33606B"/>
<path d="M7.0165 10.729C7.18278 10.729 7.34906 10.7259 7.51535 10.729C7.71613 10.7334 7.82838 10.855 7.83462 11.0553C7.84542 11.4196 7.84459 11.7844 7.83462 12.1488C7.8288 12.3417 7.7153 12.4624 7.52865 12.4667C7.18278 12.4752 6.83636 12.4752 6.48938 12.4667C6.29275 12.4615 6.18342 12.3329 6.17927 12.13C6.17178 11.773 6.16971 11.4153 6.17927 11.0583C6.18509 10.858 6.29483 10.7347 6.49603 10.7299C6.6698 10.7255 6.84315 10.729 7.0165 10.729Z" fill="#33606B"/>
<path d="M3.55216 11.5687C3.55216 11.4012 3.54675 11.2333 3.55216 11.0657C3.56006 10.8492 3.65525 10.7377 3.85645 10.7325C4.20273 10.7233 4.54902 10.7263 4.89572 10.7325C5.062 10.7351 5.18214 10.8278 5.18671 11.008C5.19807 11.3999 5.19807 11.7921 5.18671 12.1846C5.18255 12.3639 5.06408 12.4623 4.89863 12.4658C4.54569 12.4737 4.19193 12.4759 3.83982 12.4658C3.65442 12.4601 3.54883 12.3416 3.54883 12.1391C3.55132 11.9475 3.55216 11.7581 3.55216 11.5687Z" fill="#33606B"/>
<path d="M10.4616 11.5955C10.4616 11.7774 10.4616 11.9598 10.4616 12.1418C10.4616 12.3325 10.3643 12.4549 10.1876 12.4606C9.8214 12.4729 9.45392 12.4698 9.08768 12.4606C8.94094 12.4567 8.83285 12.3613 8.82911 12.1982C8.81997 11.7993 8.81747 11.3995 8.82911 11.0006C8.83368 10.8186 8.95882 10.732 9.12385 10.7294C9.47014 10.7246 9.81642 10.7229 10.1631 10.7294C10.3498 10.7334 10.4574 10.8445 10.4624 11.0461C10.4649 11.2311 10.4616 11.4131 10.4616 11.5955Z" fill="#33606B"/>
</svg>
