<svg width="22" height="22" viewBox="0 0 22 22" fill="none" xmlns="http://www.w3.org/2000/svg">
<path d="M7.81867 17.3087C7.76882 17.7636 7.71984 18.1722 7.67859 18.5817C7.63733 18.9911 7.41645 19.1928 7.01423 19.2289C6.612 19.2649 6.22009 19.3147 5.75856 19.3628C5.78606 19.616 5.79895 19.8512 5.83935 20.0821C5.90295 20.4495 5.77745 20.7216 5.54109 21.0143C4.94806 21.7499 4.25191 22.0872 3.27556 21.9808C2.45477 21.8949 1.61594 21.9662 0.783117 21.961C0.252828 21.961 0.0164757 21.7293 0.00959997 21.21C0.00444319 20.0658 -0.016189 18.9207 0.0259247 17.7765C0.0353788 17.519 0.220185 17.2126 0.413564 17.0177C2.89283 14.5176 5.38324 12.0283 7.88485 9.54994C8.10573 9.33105 8.16162 9.14994 8.08083 8.8478C6.98072 4.73537 9.75937 0.613502 13.9914 0.0624315C17.9105 -0.448296 21.3982 2.22723 21.9354 6.15682C22.4579 9.98255 19.7541 13.5542 15.938 14.0469C14.999 14.1802 14.0422 14.1115 13.1319 13.8452C13.0273 13.8029 12.9117 13.7955 12.8025 13.8241C12.6933 13.8527 12.5963 13.9158 12.526 14.004C12.1607 14.3868 11.7524 14.7319 11.4009 15.125C11.0967 15.4632 10.7529 15.6151 10.3034 15.5748C10.0636 15.5533 9.82122 15.5705 9.49806 15.5705C9.49806 15.9405 9.50494 16.2761 9.49806 16.6108C9.48345 17.2409 9.19038 17.4787 8.55954 17.3902C8.32834 17.3559 8.0894 17.3379 7.81867 17.3087ZM16.7373 3.33108C15.675 3.33108 14.7915 4.22722 14.8147 5.27185C14.8313 5.77614 15.0405 6.25496 15.3995 6.60998C15.7585 6.965 16.24 7.16927 16.7451 7.18085C17.2573 7.17767 17.7474 6.97193 18.1081 6.60867C18.4687 6.24541 18.6705 5.75423 18.6694 5.24266C18.6717 4.98945 18.6232 4.73835 18.5268 4.50418C18.4303 4.27002 18.2877 4.05755 18.1076 3.87934C17.9275 3.70113 17.7134 3.5608 17.4781 3.46663C17.2427 3.37246 16.9908 3.32637 16.7373 3.33108Z" fill="white"/>
</svg>
