<svg width="26" height="23" viewBox="0 0 26 23" fill="none" xmlns="http://www.w3.org/2000/svg">
<g clip-path="url(#clip0_183_507)">
<path d="M15.3103 0C18.2373 0.0865785 20.9265 0.958548 23.188 3.01685C27.0038 6.48927 26.9449 12.2509 22.9604 15.5295C22.1151 16.2252 21.982 16.9045 22.2462 17.8197C22.3783 18.2773 22.555 18.7236 22.7328 19.1668C23.0782 20.0285 22.5449 20.7644 21.6346 20.6284C20.4063 20.4449 19.304 19.8821 18.3003 19.1998C17.3006 18.5206 16.2948 18.3021 15.097 18.3145C12.1579 18.3443 9.5022 17.4054 7.30472 15.3749C3.27651 11.6531 3.55183 5.85024 7.88076 2.48295C10.0569 0.790545 12.5409 0.0556576 15.3103 0ZM18.1458 10.5502C19.0358 10.5533 19.7236 9.8648 19.7307 8.96397C19.7378 8.06933 19.0551 7.34578 18.1834 7.32516C17.3107 7.30558 16.5559 8.06005 16.5589 8.95057C16.561 9.83388 17.2681 10.5461 18.1458 10.5502ZM12.2899 10.5482C13.1637 10.5543 13.885 9.84625 13.9002 8.96706C13.9165 8.08685 13.1596 7.31589 12.2869 7.32413C11.4284 7.33238 10.7071 8.07036 10.7071 8.94336C10.7071 9.82563 11.4142 10.542 12.2899 10.5471V10.5482Z" fill="white"/>
<path d="M4.15935 5.27612C3.86371 6.46658 3.49086 7.50552 3.36184 8.57538C3.01235 11.45 4.04658 13.8639 6.03885 15.8645C7.95492 17.7878 10.2987 18.8545 12.9645 19.173C13.8342 19.2771 14.715 19.2854 15.6923 19.3431C15.2646 19.5472 14.9029 19.7378 14.5281 19.8955C12.7085 20.6624 10.8067 20.8386 8.8591 20.7087C8.61223 20.6923 8.3298 20.7603 8.10934 20.8768C6.98774 21.4684 5.88544 22.0992 4.76384 22.6918C4.48446 22.8392 4.16443 22.9258 3.85355 22.9876C3.65951 23.0258 3.44718 22.9639 3.24297 22.9464C3.26329 22.7433 3.23485 22.5176 3.31307 22.3403C3.71742 21.4148 3.93178 20.4624 3.87489 19.4441C3.85457 19.0854 3.72859 18.8556 3.43905 18.6391C1.6581 17.3074 0.426781 15.6058 0.0874559 13.3331C-0.263044 10.9841 0.450147 8.95262 1.99235 7.22929C2.62934 6.51708 3.41365 5.93886 4.15834 5.27612H4.15935Z" fill="white"/>
</g>
<defs>
<clipPath id="clip0_183_507">
<rect width="26" height="23" fill="white"/>
</clipPath>
</defs>
</svg>
