<svg width="16" height="16" viewBox="0 0 16 16" fill="none" xmlns="http://www.w3.org/2000/svg">
<g clip-path="url(#clip0_182_1283)">
<path d="M15.5938 6.95425C15.2804 6.58032 14.9626 6.21064 14.6403 5.84523C14.3363 5.50761 14.1699 5.06778 14.174 4.6129C14.174 4.19936 14.1838 3.78583 14.1695 3.3738C14.1373 2.46553 13.5324 1.85801 12.6276 1.82568C12.2161 1.8114 11.8031 1.82568 11.3923 1.82117C10.9387 1.82488 10.5001 1.65804 10.163 1.3535C9.78818 1.02192 9.41338 0.693349 9.02809 0.376056C8.63081 0.0444767 8.17656 -0.0600346 7.66384 0.0377098C7.08066 0.14974 6.70886 0.575304 6.32582 0.954251C5.67068 1.60012 4.94508 1.97681 4.00659 1.82418H3.59432C2.39947 1.82418 1.7998 2.42317 1.7953 3.62117C1.7953 5.42117 1.91523 5.18583 0.6994 6.60914L0.6027 6.72342C-0.205358 7.68733 -0.206858 8.34899 0.6027 9.30688C1.93172 10.8858 1.7908 10.5272 1.80204 12.5219C1.80204 13.5745 2.4347 14.2076 3.48188 14.2061C5.54325 14.2061 5.23142 14.1159 6.70511 15.4415C7.51017 16.1663 8.45765 16.2084 9.29795 15.4535C10.8039 14.1001 10.4853 14.2061 12.5549 14.2054C13.5421 14.2054 14.1635 13.5783 14.1883 12.5911C14.1973 12.2407 14.201 11.8896 14.1883 11.5385C14.1738 11.2757 14.2135 11.0128 14.3048 10.7661C14.3961 10.5194 14.5371 10.2943 14.719 10.1046C15.0241 9.7738 15.3112 9.42794 15.599 9.08132C16.1342 8.43696 16.1335 7.59861 15.5938 6.95425ZM11.2596 6.56854C10.0138 7.81515 8.76874 9.06227 7.52442 10.3099C7.19085 10.6415 6.88726 10.6347 6.54995 10.3009C5.94578 9.70237 5.34611 9.10087 4.75093 8.49636C4.45634 8.1956 4.43161 7.8535 4.67597 7.5941C4.92034 7.3347 5.29064 7.34523 5.59722 7.64673C6.00724 8.04974 6.42177 8.45049 6.81156 8.87154C6.98846 9.06327 7.08516 9.06478 7.27105 8.87154C8.31099 7.80839 9.36041 6.754 10.4193 5.70838C10.8114 5.31891 11.3503 5.4347 11.4793 5.92267C11.492 5.97079 11.5002 6.01966 11.507 6.05049C11.4951 6.24894 11.4063 6.43485 11.2596 6.56854Z" fill="#F6F6F6"/>
<path d="M15.5938 6.95425C15.2804 6.58032 14.9626 6.21064 14.6403 5.84523C14.3363 5.50761 14.1699 5.06778 14.174 4.6129C14.174 4.19936 14.1838 3.78583 14.1695 3.3738C14.1373 2.46553 13.5324 1.85801 12.6276 1.82568C12.2161 1.8114 11.8031 1.82568 11.3923 1.82117C10.9387 1.82488 10.5001 1.65804 10.163 1.3535C9.78818 1.02192 9.41338 0.693349 9.02809 0.376056C8.63081 0.0444767 8.17656 -0.0600346 7.66384 0.0377098C7.08066 0.14974 6.70886 0.575304 6.32582 0.954251C5.76947 1.50272 5.16231 1.85708 4.41712 1.85801C4.14272 1.85835 3.86872 1.82418 3.59432 1.82418C2.39947 1.82418 1.7998 2.42317 1.7953 3.62117C1.7953 5.42117 1.91523 5.18583 0.6994 6.60914L0.6027 6.72342C-0.205358 7.68733 -0.206858 8.34899 0.6027 9.30688C1.93172 10.8858 1.7908 10.5272 1.80204 12.5219C1.80204 13.5745 2.4347 14.2076 3.48188 14.2061C5.54325 14.2061 5.23142 14.1159 6.70511 15.4415C7.51017 16.1663 8.45765 16.2084 9.29795 15.4535C10.8039 14.1001 10.4853 14.2061 12.5549 14.2054C13.5421 14.2054 14.1635 13.5783 14.1883 12.5911C14.1973 12.2407 14.201 11.8896 14.1883 11.5385C14.1738 11.2757 14.2135 11.0128 14.3048 10.7661C14.3961 10.5194 14.5371 10.2943 14.719 10.1046C15.0241 9.7738 15.3112 9.42794 15.599 9.08132C16.1342 8.43696 16.1335 7.59861 15.5938 6.95425ZM11.2596 6.56854C10.0138 7.81515 8.76874 9.06227 7.52442 10.3099C7.19085 10.6415 6.88726 10.6347 6.54995 10.3009C5.94578 9.70237 5.34611 9.10087 4.75093 8.49636C4.45634 8.1956 4.43161 7.8535 4.67597 7.5941C4.92034 7.3347 5.29064 7.34523 5.59722 7.64673C6.00724 8.04974 6.42177 8.45049 6.81156 8.87154C6.98846 9.06327 7.08516 9.06478 7.27105 8.87154C8.31099 7.80839 9.36041 6.754 10.4193 5.70838C10.8114 5.31891 11.3503 5.4347 11.4793 5.92267C11.5015 6.00657 11.5079 6.09528 11.4881 6.17977C11.453 6.32854 11.3739 6.46439 11.2596 6.56854Z" fill="url(#paint0_linear_182_1283)"/>
</g>
<defs>
<linearGradient id="paint0_linear_182_1283" x1="-0.310238" y1="0.00262044" x2="16.7897" y2="0.267566" gradientUnits="userSpaceOnUse">
<stop stop-color="#003846"/>
<stop offset="1" stop-color="#007491"/>
</linearGradient>
<clipPath id="clip0_182_1283">
<rect width="16" height="16" fill="white"/>
</clipPath>
</defs>
</svg>
