<svg width="350" height="29" viewBox="0 0 350 29" fill="none" xmlns="http://www.w3.org/2000/svg">
<path d="M12.5062 28.1139C5.02257 28.1139 0.33637 23.107 0.33637 14.8037C0.33637 6.51818 5.05821 1.51125 12.5062 1.51125C18.6892 1.51125 23.3932 5.43127 23.803 11.1866H18.5645C18.0655 8.03273 15.6423 5.96581 12.5062 5.96581C8.44368 5.96581 5.82439 9.3691 5.82439 14.7859C5.82439 20.2739 8.40804 23.6593 12.5241 23.6593C15.7135 23.6593 18.0121 21.7884 18.5823 18.7415H23.8208C23.215 24.479 18.8139 28.1139 12.5062 28.1139ZM25.6839 27.6685V8.05055H30.7087V11.5607H30.8156C31.4749 9.13746 33.1676 7.81891 35.484 7.81891C36.0898 7.81891 36.6243 7.89019 36.9985 8.01491V12.612C36.5531 12.4338 35.8403 12.3091 35.0741 12.3091C32.437 12.3091 30.8869 13.9484 30.8869 16.6924V27.6685H25.6839ZM46.2384 11.5964C43.8685 11.5964 42.1223 13.3248 41.9442 15.8371H50.4078C50.3187 13.2713 48.6438 11.5964 46.2384 11.5964ZM50.4791 21.6815H55.2722C54.702 25.4768 51.1562 28.007 46.3809 28.007C40.4118 28.007 36.759 24.1761 36.759 17.9397C36.759 11.7033 40.4296 7.712 46.1849 7.712C51.8333 7.712 55.4326 11.4895 55.4326 17.4586V19.0622H41.8907V19.383C41.8907 22.2161 43.726 24.1226 46.47 24.1226C48.43 24.1226 49.9802 23.1961 50.4791 21.6815ZM64.6368 24.1048C67.0422 24.1048 68.9666 22.6081 68.9666 20.4699V19.0266L64.8506 19.3117C62.6768 19.4542 61.5186 20.3095 61.5186 21.7528C61.5186 23.1961 62.748 24.1048 64.6368 24.1048ZM62.944 27.9001C59.1666 27.9001 56.3335 25.5303 56.3335 22.0201C56.3335 18.4564 59.0597 16.443 64.0666 16.14L68.9666 15.8371V14.5364C68.9666 12.6477 67.6659 11.6142 65.5277 11.6142C63.639 11.6142 62.3204 12.612 62.0709 14.0375H57.3135C57.456 10.2957 60.8415 7.712 65.7415 7.712C70.7841 7.712 74.0805 10.2957 74.0805 14.2157V27.6685H69.0557V24.6394H68.9488C67.8797 26.6885 65.4564 27.9001 62.944 27.9001ZM77.8857 3.68508H83.0887V8.05055H86.7236V11.9884H83.0887V21.5212C83.0887 23.0357 83.837 23.7663 85.4229 23.7663C85.8861 23.7663 86.4029 23.7306 86.7236 23.6772V27.5259C86.189 27.6328 85.2625 27.7397 84.2112 27.7397C79.6676 27.7397 77.8857 26.2074 77.8857 22.3764V11.9884H75.2308V8.05055H77.8857V3.68508ZM97.086 11.5964C94.7161 11.5964 92.97 13.3248 92.7918 15.8371H101.255C101.166 13.2713 99.4914 11.5964 97.086 11.5964ZM101.327 21.6815H106.12C105.55 25.4768 102.004 28.007 97.2285 28.007C91.2594 28.007 87.6067 24.1761 87.6067 17.9397C87.6067 11.7033 91.2772 7.712 97.0325 7.712C102.681 7.712 106.28 11.4895 106.28 17.4586V19.0622H92.7383V19.383C92.7383 22.2161 94.5736 24.1226 97.3176 24.1226C99.2776 24.1226 100.828 23.1961 101.327 21.6815ZM120.252 27.6685H115.102V1.9567H119.593L131.602 18.7059H131.745V1.9567H136.894V27.6685H132.44L120.412 10.8302H120.252V27.6685ZM148.468 11.5964C146.098 11.5964 144.352 13.3248 144.174 15.8371H152.638C152.549 13.2713 150.874 11.5964 148.468 11.5964ZM152.709 21.6815H157.502C156.932 25.4768 153.386 28.007 148.611 28.007C142.642 28.007 138.989 24.1761 138.989 17.9397C138.989 11.7033 142.659 7.712 148.415 7.712C154.063 7.712 157.662 11.4895 157.662 17.4586V19.0622H144.12V19.383C144.12 22.2161 145.956 24.1226 148.7 24.1226C150.66 24.1226 152.21 23.1961 152.709 21.6815ZM186.609 8.05055L181.388 27.6685H175.865L172.248 13.6989H172.141L168.559 27.6685H163.089L157.851 8.05055H163.089L166.118 22.6972H166.225L169.771 8.05055H174.76L178.324 22.6972H178.431L181.478 8.05055H186.609ZM194.754 1.9567H205.481C210.755 1.9567 214.39 5.4669 214.39 10.7589C214.39 16.0331 210.63 19.5611 205.214 19.5611H200.135V27.6685H194.754V1.9567ZM200.135 6.21527V15.356H204.038C207.12 15.356 208.92 13.7168 208.92 10.7767C208.92 7.85455 207.138 6.21527 204.055 6.21527H200.135ZM222.347 24.1048C224.752 24.1048 226.677 22.6081 226.677 20.4699V19.0266L222.561 19.3117C220.387 19.4542 219.229 20.3095 219.229 21.7528C219.229 23.1961 220.458 24.1048 222.347 24.1048ZM220.654 27.9001C216.877 27.9001 214.044 25.5303 214.044 22.0201C214.044 18.4564 216.77 16.443 221.777 16.14L226.677 15.8371V14.5364C226.677 12.6477 225.376 11.6142 223.238 11.6142C221.349 11.6142 220.031 12.612 219.781 14.0375H215.024C215.166 10.2957 218.552 7.712 223.452 7.712C228.494 7.712 231.791 10.2957 231.791 14.2157V27.6685H226.766V24.6394H226.659C225.59 26.6885 223.167 27.9001 220.654 27.9001ZM233.868 13.8237C233.868 10.1353 237.11 7.712 242.082 7.712C246.928 7.712 250.153 10.1887 250.225 13.9306H245.414C245.307 12.3804 244.006 11.4004 242.01 11.4004C240.14 11.4004 238.892 12.2378 238.892 13.5029C238.892 14.4829 239.748 15.1422 241.512 15.552L245.2 16.3539C249.138 17.2448 250.706 18.7593 250.706 21.6815C250.706 25.4946 247.196 28.007 242.064 28.007C236.897 28.007 233.654 25.5124 233.386 21.735H238.465C238.714 23.3921 240.05 24.3186 242.206 24.3186C244.273 24.3186 245.538 23.5168 245.538 22.2339C245.538 21.2182 244.861 20.6837 243.08 20.2561L239.462 19.4364C235.774 18.599 233.868 16.6924 233.868 13.8237ZM251.981 13.8237C251.981 10.1353 255.224 7.712 260.195 7.712C265.042 7.712 268.267 10.1887 268.338 13.9306H263.527C263.42 12.3804 262.119 11.4004 260.124 11.4004C258.253 11.4004 257.006 12.2378 257.006 13.5029C257.006 14.4829 257.861 15.1422 259.625 15.552L263.313 16.3539C267.251 17.2448 268.819 18.7593 268.819 21.6815C268.819 25.4946 265.309 28.007 260.177 28.007C255.01 28.007 251.767 25.5124 251.5 21.735H256.578C256.827 23.3921 258.164 24.3186 260.32 24.3186C262.387 24.3186 263.652 23.5168 263.652 22.2339C263.652 21.2182 262.975 20.6837 261.193 20.2561L257.576 19.4364C253.887 18.599 251.981 16.6924 251.981 13.8237ZM297.677 8.05055L292.456 27.6685H286.932L283.315 13.6989H283.208L279.627 27.6685H274.157L268.918 8.05055H274.157L277.186 22.6972H277.293L280.839 8.05055H285.828L289.391 22.6972H289.498L292.545 8.05055H297.677ZM307.362 28.007C301.411 28.007 297.687 24.1939 297.687 17.8506C297.687 11.5786 301.464 7.712 307.362 7.712C313.278 7.712 317.037 11.5607 317.037 17.8506C317.037 24.2117 313.313 28.007 307.362 28.007ZM307.362 23.9979C310.106 23.9979 311.745 21.7528 311.745 17.8506C311.745 13.984 310.088 11.7033 307.362 11.7033C304.618 11.7033 302.961 14.0018 302.961 17.8506C302.961 21.7528 304.618 23.9979 307.362 23.9979ZM318.74 27.6685V8.05055H323.765V11.5607H323.872C324.531 9.13746 326.224 7.81891 328.54 7.81891C329.146 7.81891 329.681 7.89019 330.055 8.01491V12.612C329.609 12.4338 328.897 12.3091 328.13 12.3091C325.493 12.3091 323.943 13.9484 323.943 16.6924V27.6685H318.74ZM337.851 27.9001C332.969 27.9001 329.815 24.0157 329.815 17.8328C329.815 11.6855 332.987 7.81891 337.869 7.81891C340.702 7.81891 342.894 9.22656 343.874 11.4004H343.981V0.727244H349.184V27.6685H344.052V24.3186H343.963C343.001 26.4746 340.738 27.9001 337.851 27.9001ZM339.58 12.024C336.871 12.024 335.143 14.2869 335.143 17.8506C335.143 21.4499 336.871 23.695 339.58 23.695C342.27 23.695 344.016 21.4142 344.016 17.8684C344.016 14.3226 342.27 12.024 339.58 12.024Z" fill="url(#paint0_linear_185_6852)"/>
<defs>
<linearGradient id="paint0_linear_185_6852" x1="-7.75702" y1="-7.33155" x2="363.784" y2="38.8423" gradientUnits="userSpaceOnUse">
<stop stop-color="#003846"/>
<stop offset="1" stop-color="#007491"/>
</linearGradient>
</defs>
</svg>
