<svg width="34" height="33" viewBox="0 0 34 33" fill="none" xmlns="http://www.w3.org/2000/svg">
<g clip-path="url(#clip0_154_525)">
<path d="M14.0398 0.91394C21.6943 1.00295 27.8788 6.88486 27.7064 13.9833C27.528 21.2597 20.5394 27.1035 12.9235 26.3377C12.3097 26.2769 11.6691 26.2614 11.0954 26.0735C10.2452 25.7909 9.53476 25.9039 8.80052 26.3674C8.2268 26.7305 7.58769 26.9989 6.97533 27.3084C6.20542 27.6955 5.4474 27.6814 4.74586 27.1784C4.04432 26.6754 3.73071 25.9576 4.00271 25.1805C4.54372 23.6263 4.14242 22.5045 3.04107 21.1665C-2.88931 13.9607 1.52949 3.10959 11.0344 1.28977C12.0214 1.10044 13.0365 1.03545 14.0398 0.91394ZM10.4117 15.9232C10.4275 16.5137 10.6114 17.0891 10.9437 17.5881C11.2761 18.0872 11.7446 18.4913 12.2993 18.7575C12.6976 18.9623 12.8701 19.1559 12.8671 19.6052C12.8671 20.3117 13.4021 20.7892 14.071 20.7694C14.2266 20.7672 14.3801 20.7351 14.5223 20.6749C14.6646 20.6148 14.7925 20.5279 14.8985 20.4195C15.0044 20.3112 15.0862 20.1835 15.1389 20.0443C15.1916 19.9051 15.2141 19.7572 15.205 19.6095C15.205 19.163 15.3774 18.9722 15.7713 18.7617C17.109 18.0553 17.7555 16.9419 17.6441 15.4908C17.5326 14.0398 16.7032 13.038 15.2808 12.5238C14.8736 12.3825 14.4143 12.3556 13.9744 12.3005C13.252 12.2073 12.7734 11.7354 12.7853 11.084C12.7885 10.7867 12.9079 10.5011 13.1202 10.2828C13.3326 10.0645 13.6227 9.9291 13.9342 9.90282C14.5793 9.84913 15.1099 10.2391 15.2719 10.8834C15.2942 10.9752 15.3016 11.0699 15.3209 11.166C15.4696 11.9021 15.9631 12.2836 16.6468 12.2044C17.3305 12.1253 17.7154 11.6266 17.6575 10.8777C17.5579 9.60611 16.8994 8.6524 15.7133 8.06463C15.3581 7.88943 15.2169 7.71282 15.2154 7.32428C15.2154 6.58109 14.7428 6.112 14.0784 6.09364C13.3813 6.07244 12.873 6.55283 12.87 7.32569C12.87 7.71282 12.7303 7.89085 12.3751 8.06605C10.868 8.81206 10.1456 10.2914 10.4904 11.8597C10.804 13.322 12.1685 14.4312 13.8064 14.5555C14.7963 14.6304 15.3061 15.0472 15.2927 15.7763C15.2907 16.0736 15.1725 16.3597 14.9609 16.5787C14.7494 16.7978 14.4598 16.9343 14.1483 16.9617C13.42 17.0224 12.9503 16.5957 12.7615 15.7028C12.7615 15.6802 12.7541 15.6562 12.7497 15.6336C12.5936 14.9511 12.1016 14.588 11.4357 14.6643C10.8055 14.7321 10.4176 15.18 10.4117 15.9232Z" fill="url(#paint0_linear_154_525)"/>
<path d="M13.0967 27.5486C23.3641 27.9159 30.2948 19.4682 28.7029 11.132C28.9541 11.2959 29.1488 11.4146 29.3376 11.5474C30.571 12.4787 31.588 13.6429 32.3243 14.9665C33.0607 16.2901 33.5004 17.7445 33.6158 19.2378C33.7311 20.7311 33.5196 22.2309 32.9946 23.6426C32.4695 25.0543 31.6424 26.3472 30.5653 27.4398C30.4137 27.572 30.3035 27.7414 30.2469 27.9294C30.1902 28.1174 30.1893 28.3166 30.2443 28.5051C30.3617 29.0081 30.4642 29.5181 30.5415 30.0296C30.6056 30.3688 30.5609 30.7184 30.4133 31.0331C30.2656 31.3478 30.0219 31.613 29.7136 31.7943C29.0805 32.1942 28.3537 32.2691 27.7532 31.8593C26.2104 30.8067 24.6186 30.7671 22.7577 30.9932C19.1906 31.427 16.0441 30.2401 13.4118 27.8848C13.3271 27.8142 13.2587 27.7252 13.0967 27.5486Z" fill="url(#paint1_linear_154_525)"/>
</g>
<defs>
<linearGradient id="paint0_linear_154_525" x1="-0.171003" y1="0.913934" x2="29.0605" y2="1.37849" gradientUnits="userSpaceOnUse">
<stop stop-color="#003846"/>
<stop offset="1" stop-color="#007491"/>
</linearGradient>
<linearGradient id="paint1_linear_154_525" x1="12.7033" y1="11.132" x2="34.6614" y2="11.4649" gradientUnits="userSpaceOnUse">
<stop stop-color="#003846"/>
<stop offset="1" stop-color="#007491"/>
</linearGradient>
<clipPath id="clip0_154_525">
<rect width="33.3008" height="31.2195" fill="white" transform="translate(0.349731 0.91394)"/>
</clipPath>
</defs>
</svg>
