<svg width="28" height="26" viewBox="0 0 28 26" fill="none" xmlns="http://www.w3.org/2000/svg">
<path d="M11.5202 0.978516C17.6134 1.04937 22.5365 5.73155 22.3992 11.3821C22.2572 17.1744 16.6941 21.8262 10.6316 21.2166C10.143 21.1682 9.63304 21.1559 9.17635 21.0063C8.49959 20.7813 7.93405 20.8713 7.34957 21.2402C6.89288 21.5293 6.38412 21.743 5.89666 21.9893C5.28379 22.2975 4.68039 22.2862 4.12194 21.8858C3.56349 21.4854 3.31385 20.9141 3.53036 20.2955C3.96103 19.0583 3.64158 18.1653 2.76487 17.1002C-1.95589 11.3641 1.56161 2.72632 9.12785 1.27769C9.91346 1.12697 10.7215 1.07524 11.5202 0.978516ZM8.63212 12.9263C8.64471 13.3964 8.79105 13.8544 9.05564 14.2517C9.32022 14.649 9.69314 14.9706 10.1347 15.1825C10.4518 15.3456 10.589 15.4997 10.5867 15.8573C10.5867 16.4197 11.0126 16.7999 11.545 16.7841C11.6689 16.7823 11.7911 16.7567 11.9043 16.7089C12.0175 16.661 12.1194 16.5919 12.2037 16.5056C12.2881 16.4193 12.3532 16.3177 12.3951 16.2069C12.4371 16.0961 12.455 15.9783 12.4478 15.8607C12.4478 15.5053 12.585 15.3535 12.8985 15.1859C13.9634 14.6235 14.478 13.7373 14.3893 12.5822C14.3006 11.4271 13.6404 10.6297 12.5081 10.2203C12.1839 10.1078 11.8183 10.0864 11.4681 10.0426C10.8931 9.96835 10.5121 9.59269 10.5216 9.0742C10.5241 8.83754 10.6192 8.61023 10.7882 8.43646C10.9572 8.26268 11.1882 8.15486 11.4362 8.13394C11.9497 8.0912 12.372 8.40163 12.501 8.91449C12.5188 8.9876 12.5247 9.06296 12.54 9.13944C12.6583 9.72541 13.0512 10.0291 13.5954 9.9661C14.1397 9.90311 14.4461 9.50609 14.4 8.90999C14.3207 7.89775 13.7966 7.13857 12.8524 6.67069C12.5696 6.53122 12.4572 6.39064 12.456 6.08134C12.456 5.48974 12.0798 5.11633 11.5509 5.10171C10.996 5.08484 10.5914 5.46725 10.589 6.08247C10.589 6.39064 10.4778 6.53235 10.1951 6.67182C8.99534 7.26566 8.42031 8.44324 8.6948 9.69167C8.94444 10.8557 10.0306 11.7386 11.3344 11.8376C12.1224 11.8972 12.5282 12.229 12.5176 12.8094C12.516 13.0461 12.4218 13.2738 12.2535 13.4482C12.0851 13.6226 11.8545 13.7312 11.6065 13.753C11.0268 13.8014 10.6529 13.4617 10.5027 12.7509C10.5027 12.7329 10.4968 12.7138 10.4932 12.6958C10.369 12.1525 9.97734 11.8635 9.44729 11.9242C8.94564 11.9782 8.63685 12.3347 8.63212 12.9263Z" fill="white"/>
<path d="M10.7694 22.1804C18.9426 22.4728 24.4596 15.7481 23.1925 9.1123C23.3924 9.24277 23.5474 9.33725 23.6977 9.44297C24.6795 10.1843 25.4891 11.111 26.0752 12.1646C26.6614 13.2183 27.0114 14.376 27.1032 15.5647C27.1951 16.7534 27.0267 17.9474 26.6088 19.0711C26.1908 20.1949 25.5324 21.2241 24.675 22.0937C24.5543 22.199 24.4666 22.3339 24.4215 22.4835C24.3764 22.6332 24.3757 22.7918 24.4194 22.9418C24.5129 23.3422 24.5945 23.7482 24.656 24.1553C24.707 24.4253 24.6715 24.7036 24.554 24.9541C24.4364 25.2046 24.2424 25.4158 23.997 25.5601C23.493 25.8784 22.9144 25.938 22.4365 25.6118C21.2083 24.7739 19.9412 24.7424 18.4599 24.9224C15.6203 25.2677 13.1156 24.3229 11.0203 22.448C10.9528 22.3918 10.8984 22.3209 10.7694 22.1804Z" fill="white"/>
</svg>
