<svg width="10" height="15" viewBox="0 0 10 15" fill="none" xmlns="http://www.w3.org/2000/svg">
<path d="M5.74891 14.1132H4.65461V13.1198C2.21765 12.9801 0.7353 11.7539 0.727539 9.85246H2.94719C3.00151 10.6596 3.66896 11.2494 4.65461 11.3581V8.3313L3.83194 8.13727C1.96154 7.70266 0.960369 6.62388 0.960369 5.00959C0.960369 3.10814 2.32631 1.88191 4.65461 1.69564V0.632385H5.74891V1.7034C7.92199 1.89743 9.31897 3.17023 9.35001 4.95526H7.19245C7.16917 4.21797 6.57933 3.61261 5.74891 3.49619V6.39105L6.57933 6.55403C8.56615 6.98865 9.55956 8.02086 9.55956 9.705C9.55956 11.6763 8.18586 12.9025 5.74891 13.1121V14.1132ZM7.3632 9.95335C7.3632 9.20053 6.85097 8.74263 5.74891 8.52532V11.3659C6.7656 11.3038 7.3632 10.776 7.3632 9.95335ZM3.2033 4.81557C3.2033 5.49853 3.70776 5.96419 4.65461 6.16598V3.48843C3.80866 3.535 3.2033 4.07827 3.2033 4.81557Z" fill="#33606B"/>
</svg>
