<svg width="26" height="18" viewBox="0 0 26 18" fill="none" xmlns="http://www.w3.org/2000/svg">
<g clip-path="url(#clip0_183_501)">
<path d="M1.27051 0.169046C1.6849 0.103035 2.00991 0.00701887 2.33492 0.0060187C9.44153 -0.0029828 16.5492 -0.0029828 23.6558 0.0060187C23.9828 0.0060187 24.3109 0.100034 24.6379 0.151043C24.6765 0.219054 24.7151 0.287066 24.7537 0.354077C24.5932 0.450093 24.4063 0.519104 24.2773 0.646125C21.14 3.70664 18.0087 6.77415 14.8743 9.83866C13.6098 11.0759 12.391 11.0779 11.1296 9.84366C7.98405 6.76815 4.84057 3.68963 1.69607 0.61212C1.57825 0.4961 1.46653 0.37408 1.27051 0.169046Z" fill="white"/>
<path d="M1.40356 17.8541C3.99351 15.2426 6.55502 12.6582 9.19168 9.99976C9.54615 10.3728 9.84272 10.7069 10.1627 11.0179C11.871 12.6792 14.1298 12.6772 15.8412 11.0179C16.1541 10.7149 16.4577 10.4018 16.797 10.0618C19.391 12.6822 21.9586 15.2766 24.5231 17.8671C24.3119 17.9001 23.9848 17.9941 23.6578 17.9941C16.5522 18.0021 9.44661 18.0021 2.34001 17.9941C2.01296 17.9941 1.68592 17.8991 1.40356 17.8551V17.8541Z" fill="white"/>
<path d="M0.164557 1.2793C2.80732 3.91974 5.37898 6.48917 7.89275 9.00058C5.39726 11.495 2.81646 14.0744 0.164557 16.7259C0.102602 16.3398 0.00814487 16.0178 0.0071292 15.6957C-0.00302744 11.232 -0.00302744 6.76821 0.0071292 2.30547C0.0071292 1.98341 0.102602 1.66136 0.163542 1.2793H0.164557Z" fill="white"/>
<path d="M25.8335 16.7278C23.1888 14.0844 20.6171 11.514 18.1084 9.00554C20.6069 6.50812 23.1867 3.92969 25.8366 1.28125C25.8965 1.66231 25.991 1.98437 25.992 2.30742C26.0021 6.77117 26.0021 11.2339 25.992 15.6977C25.992 16.0197 25.8955 16.3408 25.8325 16.7278H25.8335Z" fill="white"/>
</g>
<defs>
<clipPath id="clip0_183_501">
<rect width="26" height="18" fill="white"/>
</clipPath>
</defs>
</svg>
