<svg width="157" height="28" viewBox="0 0 157 28" fill="none" xmlns="http://www.w3.org/2000/svg">
<path d="M17.1725 22.2139V26.6685H0.138192V0.956704H17.1725V5.39345H5.51931V11.5942H16.5132V15.728H5.51931V22.2139H17.1725ZM19.5879 26.6685V7.05055H24.6126V10.5607H24.7196C25.8421 8.08401 27.8378 6.76546 30.849 6.76546C35.1967 6.76546 37.6556 9.50947 37.6556 14.0888V26.6685H32.4527V15.1757C32.4527 12.5742 31.241 11.0953 28.7821 11.0953C26.2876 11.0953 24.7908 12.8771 24.7908 15.4786V26.6685H19.5879ZM41.4074 2.68508H46.6104V7.05055H50.2453V10.9884H46.6104V20.5212C46.6104 22.0357 47.3587 22.7663 48.9446 22.7663C49.4078 22.7663 49.9246 22.7306 50.2453 22.6772V26.5259C49.7107 26.6328 48.7842 26.7397 47.7329 26.7397C43.1893 26.7397 41.4074 25.2074 41.4074 21.3764V10.9884H38.7525V7.05055H41.4074V2.68508ZM60.6077 10.5964C58.2378 10.5964 56.4917 12.3248 56.3135 14.8371H64.7771C64.6881 12.2713 63.0131 10.5964 60.6077 10.5964ZM64.8484 20.6815H69.6415C69.0713 24.4768 65.5255 27.007 60.7502 27.007C54.7811 27.007 51.1284 23.1761 51.1284 16.9397C51.1284 10.7033 54.7989 6.712 60.5542 6.712C66.2026 6.712 69.8019 10.4895 69.8019 16.4586V18.0622H56.26V18.383C56.26 21.2161 58.0953 23.1226 60.8393 23.1226C62.7993 23.1226 64.3495 22.1961 64.8484 20.6815ZM71.5046 26.6685V7.05055H76.5294V10.5607H76.6363C77.2955 8.13746 78.9883 6.81891 81.3047 6.81891C81.9105 6.81891 82.445 6.89019 82.8192 7.01491V11.612C82.3737 11.4338 81.661 11.3091 80.8948 11.3091C78.2577 11.3091 76.7075 12.9484 76.7075 15.6924V26.6685H71.5046ZM102.671 0.511247C110.279 0.511247 115.072 5.62509 115.072 13.8215C115.072 22.0001 110.279 27.1139 102.671 27.1139C95.0447 27.1139 90.2694 22.0001 90.2694 13.8215C90.2694 5.62509 95.0447 0.511247 102.671 0.511247ZM102.671 5.00145C98.4658 5.00145 95.7574 8.42256 95.7574 13.8215C95.7574 19.2026 98.448 22.6059 102.671 22.6059C106.876 22.6059 109.567 19.2026 109.567 13.8215C109.567 8.42256 106.876 5.00145 102.671 5.00145ZM127.644 26.6685H122.263V5.39345H114.744V0.956704H135.181V5.39345H127.644V26.6685ZM137.062 0.956704H147.789C153.063 0.956704 156.698 4.4669 156.698 9.75893C156.698 15.0331 152.938 18.5611 147.522 18.5611H142.443V26.6685H137.062V0.956704ZM142.443 5.21527V14.356H146.346C149.428 14.356 151.228 12.7168 151.228 9.77674C151.228 6.85455 149.446 5.21527 146.363 5.21527H142.443Z" fill="url(#paint0_linear_168_2686)"/>
<defs>
<linearGradient id="paint0_linear_168_2686" x1="-5.06267" y1="-8.33155" x2="165.401" y2="1.27056" gradientUnits="userSpaceOnUse">
<stop stop-color="#003846"/>
<stop offset="1" stop-color="#007491"/>
</linearGradient>
</defs>
</svg>
