<svg width="14" height="15" viewBox="0 0 14 15" fill="none" xmlns="http://www.w3.org/2000/svg">
<path d="M1.65559 1.93198C1.65559 2.46559 1.63521 2.97515 1.66348 3.48121C1.67493 3.76238 1.73775 4.03859 1.84848 4.29476C2.06215 4.75533 2.45831 4.98759 2.94053 4.99765C3.35292 5.00683 3.77736 5.01602 4.17686 4.92679C4.75885 4.79557 5.1255 4.24534 5.13298 3.61156C5.1388 3.13043 5.13298 2.6493 5.13298 2.16817V1.93985H8.86728C8.8706 2.0059 8.87642 2.075 8.87684 2.14367C8.87684 2.61037 8.87684 3.07663 8.87684 3.54332C8.87933 4.27814 9.26761 4.84106 9.95144 4.96091C10.3886 5.03577 10.8342 5.03695 11.2717 4.96441C11.9518 4.84981 12.3451 4.28951 12.3547 3.54945C12.3605 3.09762 12.3547 2.6458 12.3547 2.19354V1.96128C12.8705 1.91142 13.4355 2.43191 13.487 2.98215C13.4978 3.09806 13.502 3.21484 13.502 3.33206C13.502 6.5396 13.502 9.74625 13.502 12.952C13.502 13.2626 13.4712 13.5618 13.2912 13.8233C13.0314 14.2012 12.6772 14.3705 12.2391 14.3701C11.0341 14.3683 9.82853 14.3683 8.62243 14.3701C6.33632 14.3701 4.04993 14.3701 1.76326 14.3701C1.14801 14.3701 0.693637 14.0245 0.541488 13.4314C0.508191 13.2755 0.494218 13.1157 0.499918 12.956C0.497423 9.74844 0.497423 6.54164 0.499918 3.33556C0.499918 2.60643 0.783013 2.17385 1.38246 1.97965C1.47241 1.95748 1.56365 1.94156 1.65559 1.93198ZM6.99743 13.0207C8.44533 13.0207 9.89324 13.0102 11.3412 13.0273C11.7631 13.0325 11.968 12.7548 11.9647 12.3786C11.9503 10.7457 11.9503 9.11277 11.9647 7.47984C11.9689 7.04726 11.7257 6.81851 11.3482 6.81938C8.44533 6.82594 5.54245 6.822 2.63956 6.82375C2.21263 6.82375 2.02349 7.0302 2.02307 7.48378C2.02307 9.1097 2.02307 10.7353 2.02307 12.3607C2.02307 12.8318 2.2039 13.0198 2.6537 13.0198C4.10147 13.021 5.54938 13.0213 6.99743 13.0207Z" fill="#33606B"/>
<path d="M2.51953 2.23904C2.51953 1.80952 2.51953 1.37956 2.51953 0.950047C2.51953 0.552459 2.68872 0.374003 3.05995 0.372253C3.28859 0.372253 3.51723 0.372253 3.74545 0.372253C4.0564 0.375753 4.25137 0.552021 4.25469 0.87569C4.26384 1.77963 4.26384 2.68357 4.25469 3.58751C4.25178 3.91512 4.06471 4.09182 3.75252 4.09663C3.51016 4.10057 3.2678 4.10013 3.02586 4.09663C2.69329 4.09182 2.52161 3.90987 2.51953 3.55121C2.51953 3.11294 2.51953 2.67599 2.51953 2.23904Z" fill="#33606B"/>
<path d="M11.4672 2.23114C11.4672 2.66066 11.4672 3.09018 11.4672 3.5197C11.4652 3.93478 11.3101 4.09399 10.9098 4.09574C10.6816 4.09574 10.4525 4.09924 10.2247 4.09574C9.92123 4.08918 9.74705 3.90941 9.74622 3.59362C9.74345 2.68967 9.74345 1.7869 9.74622 0.885292C9.74622 0.558124 9.9233 0.377919 10.2388 0.373545C10.4883 0.370483 10.7377 0.369609 10.9871 0.373545C11.2877 0.378794 11.4631 0.558999 11.4672 0.877419C11.4726 1.32881 11.4672 1.78019 11.4672 2.23333V2.23114Z" fill="#33606B"/>
<path d="M7.00527 9.5189C6.83899 9.5189 6.67271 9.52239 6.50642 9.5189C6.30231 9.51321 6.18301 9.39949 6.1776 9.18254C6.16887 8.82651 6.16846 8.4696 6.1776 8.114C6.18301 7.90274 6.30231 7.77896 6.51017 7.77327C6.84273 7.76365 7.17433 7.76365 7.50495 7.77327C7.71904 7.77983 7.83088 7.90755 7.83503 8.13805C7.84168 8.47951 7.84168 8.82126 7.83503 9.1633C7.83004 9.40299 7.7124 9.51321 7.48127 9.51933C7.3233 9.52152 7.16449 9.5189 7.00527 9.5189Z" fill="#33606B"/>
<path d="M4.37947 9.51895C4.22067 9.51895 4.06146 9.52114 3.90265 9.51895C3.66612 9.51501 3.55596 9.40916 3.55222 9.16904C3.5464 8.81912 3.5464 8.47023 3.55222 8.12236C3.55596 7.90585 3.66445 7.78163 3.87106 7.77507C4.20363 7.76414 4.53411 7.76633 4.86543 7.77507C5.06705 7.77945 5.19301 7.90017 5.198 8.11274C5.20922 8.46834 5.21338 8.82525 5.198 9.18041C5.1876 9.42797 5.07328 9.51851 4.83259 9.52201C4.68335 9.5207 4.5312 9.51895 4.37947 9.51895Z" fill="#33606B"/>
<path d="M10.4624 8.65467C10.4624 8.82962 10.467 9.00458 10.4624 9.17954C10.4549 9.40173 10.3493 9.51545 10.1423 9.51851C9.80389 9.52333 9.46551 9.52201 9.12713 9.51851C8.96084 9.51851 8.83614 9.43104 8.83032 9.25127C8.81743 8.85368 8.81743 8.45478 8.82782 8.05675C8.83281 7.86343 8.97373 7.77857 9.13918 7.77376C9.47175 7.76326 9.80431 7.7637 10.1336 7.77376C10.3493 7.77989 10.4537 7.90498 10.4636 8.1333C10.4636 8.14773 10.4636 8.1626 10.4636 8.17704V8.65817L10.4624 8.65467Z" fill="#33606B"/>
<path d="M7.0165 10.5499C7.18278 10.5499 7.34906 10.5468 7.51535 10.5499C7.71613 10.5543 7.82838 10.6759 7.83462 10.8762C7.84542 11.2405 7.84459 11.6053 7.83462 11.9697C7.8288 12.1625 7.7153 12.2833 7.52865 12.2876C7.18278 12.2961 6.83636 12.2961 6.48938 12.2876C6.29275 12.2824 6.18342 12.1538 6.17927 11.9508C6.17178 11.5939 6.16971 11.2361 6.17927 10.8792C6.18509 10.6789 6.29483 10.5556 6.49603 10.5508C6.6698 10.5464 6.84315 10.5499 7.0165 10.5499Z" fill="#33606B"/>
<path d="M3.55216 11.3896C3.55216 11.2221 3.54675 11.0542 3.55216 10.8866C3.56006 10.6701 3.65525 10.5586 3.85645 10.5533C4.20273 10.5442 4.54902 10.5472 4.89572 10.5533C5.062 10.556 5.18214 10.6487 5.18671 10.8289C5.19807 11.2208 5.19807 11.613 5.18671 12.0055C5.18255 12.1848 5.06408 12.2832 4.89863 12.2867C4.54569 12.2946 4.19193 12.2968 3.83982 12.2867C3.65442 12.281 3.54883 12.1625 3.54883 11.96C3.55132 11.7684 3.55216 11.579 3.55216 11.3896Z" fill="#33606B"/>
<path d="M10.4616 11.4163C10.4616 11.5983 10.4616 11.7807 10.4616 11.9626C10.4616 12.1533 10.3643 12.2758 10.1876 12.2815C9.8214 12.2937 9.45392 12.2907 9.08768 12.2815C8.94094 12.2776 8.83285 12.1822 8.82911 12.0191C8.81997 11.6202 8.81747 11.2204 8.82911 10.8215C8.83368 10.6395 8.95882 10.5529 9.12385 10.5503C9.47014 10.5455 9.81642 10.5437 10.1631 10.5503C10.3498 10.5542 10.4574 10.6653 10.4624 10.867C10.4649 11.052 10.4616 11.234 10.4616 11.4163Z" fill="#33606B"/>
</svg>
