<svg width="23" height="27" viewBox="0 0 23 27" fill="none" xmlns="http://www.w3.org/2000/svg">
<g clip-path="url(#clip0_154_516)">
<path d="M14.8117 0.544633V1.93151C14.8117 3.10006 14.8048 4.26973 14.8117 5.43828C14.8222 6.90887 15.6831 7.75615 17.1857 7.76293C18.6361 7.76972 20.0865 7.76293 21.5358 7.76293H22.2378V8.42357C22.2378 13.6272 22.2378 18.8308 22.2378 24.0344C22.2378 25.6882 21.4081 26.4959 19.7094 26.497C14.1794 26.497 8.64852 26.497 3.1169 26.497C1.41588 26.497 0.585083 25.6893 0.585083 24.0378C0.585083 17.0242 0.585083 10.0107 0.585083 2.99711C0.585083 1.33422 1.40892 0.52088 3.09719 0.519749C6.79009 0.519749 10.4834 0.519749 14.177 0.519749C14.3743 0.517487 14.5588 0.533321 14.8117 0.544633ZM11.4155 18.626H14.6644C15.6495 18.626 16.6369 18.6362 17.6197 18.6158C18.1592 18.6057 18.4981 18.2584 18.5166 17.772C18.5352 17.2855 18.2196 16.9156 17.7044 16.8387C17.5117 16.819 17.3178 16.8129 17.1242 16.8206H7.21631C6.5793 16.8206 5.93996 16.8036 5.30411 16.8206C4.60792 16.8466 4.18788 17.3353 4.34336 17.9371C4.47796 18.4575 4.87364 18.6249 5.39578 18.6226C7.39849 18.6204 9.40698 18.6249 11.4155 18.626ZM11.4747 21.0661C9.42787 21.0661 7.37992 21.0661 5.33312 21.0661C4.62068 21.0661 4.21339 21.5185 4.32827 22.1351C4.41993 22.6237 4.80749 22.8658 5.5292 22.8658C8.6783 22.8658 11.8266 22.8658 14.9742 22.8658C15.805 22.8658 16.6357 22.876 17.4654 22.8658C18.0989 22.8556 18.4737 22.5412 18.5097 22.0333C18.5537 21.4428 18.1534 21.0694 17.4398 21.0672C15.4534 21.0615 13.4634 21.0649 11.4735 21.0661H11.4747ZM5.80418 13.9224C6.13255 13.7222 6.40756 13.6147 6.60134 13.4269C8.60404 11.4933 10.5971 9.55063 12.5805 7.59891C12.7414 7.44229 12.8574 7.24727 12.9169 7.0333C12.9706 6.84878 12.9546 6.65161 12.8717 6.47765C12.7889 6.30369 12.6448 6.16448 12.4656 6.08534C12.0107 5.85909 11.6185 5.99371 11.2658 6.33986C9.59263 7.98239 7.91482 9.62002 6.23236 11.2527C5.87731 11.5989 5.46191 11.9066 5.18808 12.3082C5.09903 12.4523 5.04068 12.6124 5.01655 12.779C4.99243 12.9455 5.00303 13.1151 5.04768 13.2776C5.14167 13.531 5.51991 13.6962 5.80418 13.9224ZM13.2673 12.6193C13.2709 12.4209 13.2337 12.2238 13.1577 12.0398C13.0818 11.8557 12.9688 11.6884 12.8253 11.5476C12.6818 11.4069 12.5108 11.2957 12.3225 11.2206C12.1342 11.1454 11.9323 11.1079 11.7288 11.1102C11.5254 11.1078 11.3236 11.1449 11.1352 11.2192C10.9467 11.2936 10.7752 11.4038 10.6309 11.5434C10.4865 11.683 10.372 11.8492 10.2942 12.0324C10.2163 12.2155 10.1767 12.412 10.1774 12.6102C10.1813 13 10.3411 13.3729 10.6229 13.6495C10.9047 13.9261 11.2861 14.0845 11.6859 14.091C11.8894 14.0984 12.0925 14.0659 12.283 13.9956C12.4735 13.9252 12.6476 13.8183 12.7951 13.6812C12.9425 13.5441 13.0603 13.3796 13.1414 13.1974C13.2225 13.0152 13.2653 12.819 13.2673 12.6204V12.6193ZM6.1546 5.67697C5.9512 5.67517 5.74948 5.71277 5.5611 5.78759C5.37272 5.86241 5.20144 5.97295 5.05723 6.11281C4.91302 6.25267 4.79874 6.41905 4.72101 6.60231C4.64328 6.78557 4.60366 6.98205 4.60444 7.18036C4.60667 7.37874 4.6494 7.5747 4.73013 7.75681C4.81086 7.93892 4.92795 8.10354 5.07462 8.24106C5.2213 8.37858 5.39461 8.48624 5.58442 8.55778C5.77422 8.62932 5.97671 8.6633 6.18013 8.65773C6.58019 8.65538 6.96331 8.49994 7.24696 8.22488C7.53061 7.94982 7.69211 7.57716 7.69667 7.18715C7.69946 6.9887 7.66155 6.79171 7.58511 6.60776C7.50868 6.42382 7.39528 6.25663 7.25161 6.11603C7.10793 5.97543 6.93686 5.86426 6.74847 5.78905C6.56008 5.71385 6.35816 5.67612 6.1546 5.6781V5.67697Z" fill="url(#paint0_linear_154_516)"/>
<path d="M21.974 5.95527H19.7926C18.9224 5.95527 18.0522 5.95527 17.1831 5.95527C16.9 5.95527 16.6702 5.89645 16.6691 5.56726C16.6691 3.97225 16.6691 2.37723 16.7561 0.723389C18.6439 2.31501 20.3624 4.04804 22.0935 5.76975L21.974 5.95527Z" fill="url(#paint1_linear_154_516)"/>
</g>
<defs>
<linearGradient id="paint0_linear_154_516" x1="0.170614" y1="0.519525" x2="23.3087" y2="0.818275" gradientUnits="userSpaceOnUse">
<stop stop-color="#003846"/>
<stop offset="1" stop-color="#007491"/>
</linearGradient>
<linearGradient id="paint1_linear_154_516" x1="16.5652" y1="0.723387" x2="22.3613" y2="0.816477" gradientUnits="userSpaceOnUse">
<stop stop-color="#003846"/>
<stop offset="1" stop-color="#007491"/>
</linearGradient>
<clipPath id="clip0_154_516">
<rect width="21.6515" height="25.9818" fill="white" transform="translate(0.588013 0.516357)"/>
</clipPath>
</defs>
</svg>
