<svg width="22" height="23" viewBox="0 0 22 23" fill="none" xmlns="http://www.w3.org/2000/svg">
<path d="M4.43793 20.4394C5.4461 20.4394 6.42038 20.4394 7.39646 20.4394C9.16534 20.433 10.431 19.1782 10.4356 17.4102C10.4441 14.5383 10.4441 11.6665 10.4356 8.79461C10.4356 7.03392 9.15247 5.78283 7.38452 5.77733C6.40934 5.77733 5.43417 5.77733 4.39851 5.77733C4.39851 4.97718 4.39851 4.20452 4.39851 3.43095C4.39851 3.07992 4.3866 2.72795 4.40401 2.37783C4.45075 1.45211 5.18583 0.662048 6.10784 0.655632C9.16166 0.632719 12.2164 0.6483 15.273 0.655632C15.318 0.666969 15.3614 0.683904 15.4022 0.706042V2.87185C15.4022 3.69675 15.3958 4.52165 15.4022 5.34655C15.4123 6.46841 16.184 7.23831 17.3122 7.24381C18.8529 7.25114 20.3935 7.24381 21.9992 7.24381V7.75158C21.9992 12.0288 21.9992 16.3061 21.9992 20.5833C21.9992 21.9178 21.266 22.6474 19.9316 22.6474C15.4101 22.6474 10.8886 22.6474 6.36718 22.6474C5.08222 22.6401 4.29129 21.7537 4.43793 20.4394ZM13.6031 18.2241C13.588 18.1822 13.577 18.1389 13.5701 18.0949C13.5701 17.2397 13.5701 16.3846 13.5636 15.5285C13.5636 14.919 13.2887 14.5716 12.8222 14.5781C12.3557 14.5845 12.1027 14.9291 12.1009 15.5496C12.1009 16.0537 12.1009 16.5578 12.1009 17.061V18.2305C11.9401 18.2309 11.7795 18.2397 11.6197 18.2571C11.4443 18.2846 11.2851 18.3754 11.1721 18.5123C11.0591 18.6493 11.0002 18.823 11.0066 19.0004C11.0341 19.3826 11.2531 19.6145 11.6234 19.6952C11.7292 19.7109 11.8365 19.7153 11.9433 19.708H18.862C18.9381 19.708 19.0151 19.708 19.0903 19.708C19.4954 19.6695 19.784 19.3762 19.7941 18.9977C19.7974 18.8122 19.7303 18.6325 19.6063 18.4945C19.4824 18.3566 19.3107 18.2708 19.126 18.2544C18.9949 18.2369 18.862 18.2369 18.6971 18.2278V9.77074C18.7052 9.63353 18.7019 9.49587 18.687 9.35921C18.6155 8.96418 18.3744 8.72313 17.9703 8.71763C17.5661 8.71213 17.3223 8.95593 17.2444 9.3473C17.2274 9.48379 17.2237 9.62162 17.2334 9.75883V18.2039H16.1336C16.1336 16.3048 16.1336 14.4461 16.1336 12.58C16.1336 11.9888 15.8778 11.6579 15.4233 11.6442C14.9687 11.6304 14.6717 11.9833 14.6717 12.5846C14.6717 14.2955 14.6717 16.0064 14.6717 17.7173V18.2241H13.6031ZM10.5859 3.57485C11.4108 3.57485 12.2356 3.57485 13.0605 3.57485C13.5985 3.57485 13.9284 3.28797 13.9294 2.84161C13.9303 2.39525 13.5985 2.10837 13.0614 2.10837C11.4441 2.1047 9.82488 2.1047 8.20387 2.10837C7.66771 2.10837 7.33502 2.39708 7.33502 2.84161C7.33502 3.28613 7.66682 3.56935 8.20298 3.57485C9.00126 3.57851 9.79221 3.57485 10.5859 3.57485ZM12.1082 6.50782C12.4437 6.50782 12.78 6.51423 13.1164 6.50782C13.6104 6.4959 13.9339 6.19528 13.9284 5.76816C13.9229 5.35663 13.6095 5.05692 13.1421 5.04958C12.441 5.03858 11.7389 5.03767 11.0341 5.04958C10.5758 5.05783 10.2614 5.37679 10.2679 5.78741C10.2743 6.19802 10.5877 6.49224 11.0542 6.50599C11.4062 6.51607 11.7572 6.50782 12.1082 6.50782Z" fill="white"/>
<path d="M8.80043 13.1079C8.80043 14.5133 8.80043 15.9168 8.80043 17.3185C8.80043 18.3826 8.21842 18.9729 7.17084 18.9747C5.32498 18.9784 3.47885 18.9784 1.63238 18.9747C0.583884 18.9747 0.000976562 18.3826 0.000976562 17.3249C0.000976562 14.5172 0.000976562 11.7098 0.000976562 8.90273C0.000976562 7.83861 0.582049 7.25294 1.63054 7.24652C3.4764 7.24652 5.32254 7.24652 7.16901 7.24652C8.21933 7.24652 8.79859 7.83678 8.80043 8.89631C8.80226 10.2999 8.80226 11.7037 8.80043 13.1079ZM4.17754 11.2748C4.66604 11.2748 5.15454 11.283 5.64396 11.2748C6.11413 11.2638 6.41747 10.9723 6.42206 10.5534C6.42664 10.1346 6.12604 9.8202 5.65953 9.8202C4.71369 9.80798 3.76663 9.80798 2.81834 9.8202C2.36008 9.82478 2.03563 10.1364 2.03013 10.5406C2.02463 10.9448 2.34909 11.2638 2.80277 11.2739C3.25644 11.2839 3.71928 11.2729 4.17754 11.2739V11.2748ZM2.93657 14.2077C3.46082 14.2077 3.81183 13.9199 3.81917 13.4873C3.82741 13.0391 3.46632 12.7422 2.91366 12.744C2.3885 12.744 2.03932 13.0318 2.03107 13.4644C2.02282 13.9126 2.38483 14.2087 2.93657 14.2068V14.2077ZM5.5532 14.2077C6.0912 14.2077 6.41564 13.9328 6.42022 13.4837C6.4248 13.0171 6.08938 12.7413 5.52206 12.744C4.98223 12.744 4.66054 13.019 4.65687 13.469C4.65229 13.9374 4.98313 14.2105 5.5532 14.2068V14.2077ZM2.93107 14.941C2.38116 14.941 2.01457 15.2416 2.03107 15.6907C2.04298 16.1224 2.39306 16.4038 2.92006 16.4047C3.46997 16.4047 3.83658 16.1032 3.81917 15.655C3.80725 15.2251 3.45806 14.9446 2.93107 14.9428V14.941ZM5.52573 16.4075C6.09213 16.4075 6.42664 16.1325 6.42022 15.6651C6.41381 15.2159 6.08844 14.9465 5.54953 14.9437C4.98129 14.9437 4.65046 15.2187 4.65687 15.6861C4.66329 16.138 4.98407 16.4047 5.52573 16.4065V16.4075Z" fill="white"/>
<path d="M21.417 5.77731L17.322 5.77731C17.0535 5.77731 16.8693 5.66732 16.8638 5.38228C16.8583 3.98545 16.8638 2.58954 16.8638 1.22296L21.417 5.77731Z" fill="white"/>
</svg>
