<svg width="265" height="35" viewBox="0 0 265 35" fill="none" xmlns="http://www.w3.org/2000/svg">
<path d="M5.51931 27.6685H0.138192V1.9567H16.9764V6.39345H5.51931V13.2891H15.9786V17.5477H5.51931V27.6685ZM27.2854 28.007C21.3341 28.007 17.6101 24.1939 17.6101 17.8506C17.6101 11.5786 21.3875 7.712 27.2854 7.712C33.201 7.712 36.9607 11.5607 36.9607 17.8506C36.9607 24.2117 33.2367 28.007 27.2854 28.007ZM27.2854 23.9979C30.0294 23.9979 31.6687 21.7528 31.6687 17.8506C31.6687 13.984 30.0116 11.7033 27.2854 11.7033C24.5414 11.7033 22.8843 14.0018 22.8843 17.8506C22.8843 21.7528 24.5414 23.9979 27.2854 23.9979ZM38.6634 27.6685V8.05055H43.6882V11.5607H43.7951C44.4543 9.13746 46.1471 7.81891 48.4635 7.81891C49.0693 7.81891 49.6038 7.89019 49.978 8.01491V12.612C49.5326 12.4338 48.8198 12.3091 48.0536 12.3091C45.4165 12.3091 43.8663 13.9484 43.8663 16.6924V27.6685H38.6634ZM59.4673 23.5168C62.1757 23.5168 63.9219 21.343 63.9219 17.8328C63.9219 14.3048 62.1757 12.024 59.4673 12.024C56.7767 12.024 55.0662 14.2691 55.0662 17.815C55.0662 21.3786 56.7589 23.5168 59.4673 23.5168ZM59.4139 34.8492C54.2644 34.8492 50.6473 32.5863 50.38 29.0583H55.5117C55.8502 30.359 57.4895 31.1787 59.5386 31.1787C62.1757 31.1787 63.9041 29.8245 63.9041 27.615V24.1048H63.7971C62.8528 26.2074 60.5542 27.5437 57.7211 27.5437C52.9458 27.5437 49.7385 23.8375 49.7385 17.7971C49.7385 11.6498 52.8389 7.81891 57.8102 7.81891C60.6255 7.81891 62.8528 9.22656 63.8862 11.4004H63.9753V8.05055H69.107V27.223C69.107 31.8914 65.3117 34.8492 59.4139 34.8492ZM80.289 11.5964C77.9192 11.5964 76.173 13.3248 75.9948 15.8371H84.4585C84.3694 13.2713 82.6945 11.5964 80.289 11.5964ZM84.5298 21.6815H89.3229C88.7527 25.4768 85.2069 28.007 80.4316 28.007C74.4624 28.007 70.8097 24.1761 70.8097 17.9397C70.8097 11.7033 74.4803 7.712 80.2356 7.712C85.8839 7.712 89.4832 11.4895 89.4832 17.4586V19.0622H75.9414V19.383C75.9414 22.2161 77.7766 24.1226 80.5206 24.1226C82.4807 24.1226 84.0308 23.1961 84.5298 21.6815ZM92.5758 3.68508H97.7787V8.05055H101.414V11.9884H97.7787V21.5212C97.7787 23.0357 98.5271 23.7663 100.113 23.7663C100.576 23.7663 101.093 23.7306 101.414 23.6772V27.5259C100.879 27.6328 99.9525 27.7397 98.9013 27.7397C94.3576 27.7397 92.5758 26.2074 92.5758 22.3764V11.9884H89.9209V8.05055H92.5758V3.68508ZM110.432 1.9567H121.158C126.433 1.9567 130.068 5.4669 130.068 10.7589C130.068 16.0331 126.308 19.5611 120.891 19.5611H115.813V27.6685H110.432V1.9567ZM115.813 6.21527V15.356H119.715C122.798 15.356 124.597 13.7168 124.597 10.7767C124.597 7.85455 122.816 6.21527 119.733 6.21527H115.813ZM138.024 24.1048C140.43 24.1048 142.354 22.6081 142.354 20.4699V19.0266L138.238 19.3117C136.064 19.4542 134.906 20.3095 134.906 21.7528C134.906 23.1961 136.136 24.1048 138.024 24.1048ZM136.332 27.9001C132.554 27.9001 129.721 25.5303 129.721 22.0201C129.721 18.4564 132.447 16.443 137.454 16.14L142.354 15.8371V14.5364C142.354 12.6477 141.054 11.6142 138.915 11.6142C137.027 11.6142 135.708 12.612 135.459 14.0375H130.701C130.844 10.2957 134.229 7.712 139.129 7.712C144.172 7.712 147.468 10.2957 147.468 14.2157V27.6685H142.443V24.6394H142.336C141.267 26.6885 138.844 27.9001 136.332 27.9001ZM149.545 13.8237C149.545 10.1353 152.788 7.712 157.759 7.712C162.606 7.712 165.831 10.1887 165.902 13.9306H161.091C160.984 12.3804 159.684 11.4004 157.688 11.4004C155.817 11.4004 154.57 12.2378 154.57 13.5029C154.57 14.4829 155.425 15.1422 157.189 15.552L160.877 16.3539C164.815 17.2448 166.383 18.7593 166.383 21.6815C166.383 25.4946 162.873 28.007 157.741 28.007C152.574 28.007 149.331 25.5124 149.064 21.735H154.142C154.392 23.3921 155.728 24.3186 157.884 24.3186C159.951 24.3186 161.216 23.5168 161.216 22.2339C161.216 21.2182 160.539 20.6837 158.757 20.2561L155.14 19.4364C151.452 18.599 149.545 16.6924 149.545 13.8237ZM167.658 13.8237C167.658 10.1353 170.901 7.712 175.873 7.712C180.719 7.712 183.944 10.1887 184.016 13.9306H179.205C179.098 12.3804 177.797 11.4004 175.801 11.4004C173.93 11.4004 172.683 12.2378 172.683 13.5029C172.683 14.4829 173.538 15.1422 175.302 15.552L178.991 16.3539C182.929 17.2448 184.497 18.7593 184.497 21.6815C184.497 25.4946 180.986 28.007 175.855 28.007C170.687 28.007 167.445 25.5124 167.177 21.735H172.255C172.505 23.3921 173.841 24.3186 175.997 24.3186C178.064 24.3186 179.329 23.5168 179.329 22.2339C179.329 21.2182 178.652 20.6837 176.87 20.2561L173.253 19.4364C169.565 18.599 167.658 16.6924 167.658 13.8237ZM213.354 8.05055L208.134 27.6685H202.61L198.993 13.6989H198.886L195.304 27.6685H189.834L184.596 8.05055H189.834L192.863 22.6972H192.97L196.516 8.05055H201.505L205.069 22.6972H205.176L208.223 8.05055H213.354ZM223.04 28.007C217.088 28.007 213.364 24.1939 213.364 17.8506C213.364 11.5786 217.142 7.712 223.04 7.712C228.955 7.712 232.715 11.5607 232.715 17.8506C232.715 24.2117 228.991 28.007 223.04 28.007ZM223.04 23.9979C225.784 23.9979 227.423 21.7528 227.423 17.8506C227.423 13.984 225.766 11.7033 223.04 11.7033C220.296 11.7033 218.639 14.0018 218.639 17.8506C218.639 21.7528 220.296 23.9979 223.04 23.9979ZM234.418 27.6685V8.05055H239.442V11.5607H239.549C240.209 9.13746 241.901 7.81891 244.218 7.81891C244.824 7.81891 245.358 7.89019 245.732 8.01491V12.612C245.287 12.4338 244.574 12.3091 243.808 12.3091C241.171 12.3091 239.621 13.9484 239.621 16.6924V27.6685H234.418ZM253.529 27.9001C248.647 27.9001 245.493 24.0157 245.493 17.8328C245.493 11.6855 248.664 7.81891 253.547 7.81891C256.38 7.81891 258.571 9.22656 259.551 11.4004H259.658V0.727244H264.861V27.6685H259.73V24.3186H259.641C258.678 26.4746 256.415 27.9001 253.529 27.9001ZM255.257 12.024C252.549 12.024 250.82 14.2869 250.82 17.8506C250.82 21.4499 252.549 23.695 255.257 23.695C257.948 23.695 259.694 21.4142 259.694 17.8684C259.694 14.3226 257.948 12.024 255.257 12.024Z" fill="url(#paint0_linear_168_2729)"/>
<defs>
<linearGradient id="paint0_linear_168_2729" x1="-7.14912" y1="-7.33155" x2="277.797" y2="19.6539" gradientUnits="userSpaceOnUse">
<stop stop-color="#003846"/>
<stop offset="1" stop-color="#007491"/>
</linearGradient>
</defs>
</svg>
