<svg width="26" height="20" viewBox="0 0 26 20" fill="none" xmlns="http://www.w3.org/2000/svg">
<path d="M12.9856 15.7273C12.2002 15.5573 11.4181 15.3759 10.6296 15.2266C10.4159 15.1834 10.1937 15.2026 9.99152 15.2815C9.50407 15.5013 9.05129 15.7926 8.56276 16.0071C8.39594 16.0818 8.09482 16.1035 7.97999 16.0071C7.90201 15.9312 7.84172 15.8402 7.80307 15.7404C7.76442 15.6405 7.74832 15.5339 7.75578 15.4277C7.81536 14.9509 7.9854 14.4875 8.05039 14.0117C8.07951 13.7895 8.02208 13.5647 7.88902 13.3804C7.04451 12.3935 6.51983 11.1919 6.37954 9.92334C6.23924 8.65482 6.48944 7.37472 7.09934 6.24047C8.3288 3.98383 10.8906 2.65701 13.6063 2.87158C17.0141 3.14006 19.5521 5.74291 19.6918 9.1118C19.8207 12.2329 17.4441 15.0037 14.1923 15.5158C13.8023 15.578 13.407 15.6039 13.0138 15.6464L12.9856 15.7273ZM9.62758 8.0493C9.46065 8.04903 9.29532 8.08039 9.14113 8.14157C8.98694 8.20276 8.84694 8.29257 8.72921 8.4058C8.61148 8.51904 8.51838 8.65347 8.45523 8.80133C8.39208 8.94919 8.36015 9.10756 8.36129 9.26729C8.36727 9.58128 8.50225 9.88039 8.73704 10.0998C8.97182 10.3193 9.2875 10.4413 9.61567 10.4397C9.94692 10.4412 10.2652 10.3167 10.5006 10.0936C10.7359 9.87056 10.869 9.56716 10.8706 9.25018C10.8722 8.9332 10.7421 8.6286 10.509 8.40339C10.2759 8.17819 9.95882 8.05082 9.62758 8.0493ZM16.4064 10.4397C16.5734 10.4416 16.7391 10.4115 16.8937 10.3511C17.0483 10.2906 17.1886 10.2011 17.3064 10.0878C17.4242 9.97453 17.517 9.83977 17.5793 9.69153C17.6417 9.54328 17.6724 9.38457 17.6695 9.22479C17.6599 8.91126 17.5236 8.61351 17.2892 8.39425C17.0548 8.17498 16.7407 8.05132 16.4129 8.0493C16.2458 8.04634 16.0798 8.07611 15.9251 8.13678C15.7705 8.19745 15.6304 8.28774 15.5135 8.4021C15.3967 8.51646 15.3055 8.65247 15.2455 8.80179C15.1856 8.95111 15.1582 9.11058 15.165 9.2704C15.1638 9.42594 15.1953 9.58012 15.2575 9.7238C15.3198 9.86748 15.4116 9.99772 15.5275 10.1068C15.6434 10.2158 15.781 10.3015 15.9322 10.3587C16.0833 10.4159 16.245 10.4434 16.4075 10.4397H16.4064ZM12.9996 10.4397C13.1665 10.442 13.3322 10.4126 13.4871 10.3532C13.642 10.2938 13.783 10.2056 13.902 10.0936C14.021 9.9817 14.1156 9.84826 14.1803 9.70107C14.245 9.55389 14.2785 9.39587 14.2789 9.23619C14.2758 8.91536 14.1396 8.60887 13.9003 8.38415C13.661 8.15943 13.3382 8.03488 13.0029 8.0379C12.6677 8.04093 12.3474 8.17127 12.1125 8.40027C11.8777 8.62927 11.7475 8.93816 11.7507 9.25899C11.7577 9.5727 11.8922 9.87145 12.1256 10.0919C12.3589 10.3123 12.6729 10.437 13.0008 10.4397H12.9996Z" fill="white"/>
<path d="M15.3182 18.2441C15.2413 19.1407 14.9498 19.404 14.0518 19.4102C13.312 19.4102 12.5711 19.4237 11.8312 19.4102C11.0026 19.3905 10.7199 19.035 10.7394 18.0917C10.7535 17.3993 11.1077 17.0603 11.8637 17.0738C13.3478 17.0997 14.8134 17.0686 16.2107 16.4757C18.1779 15.6412 19.6619 14.3258 20.4776 12.4257C20.8025 11.6618 20.9109 10.7952 21.0192 9.96283C21.55 5.90773 18.6274 2.1553 14.4808 1.52817C10.0016 0.850249 5.85509 3.53914 4.98309 7.6326C4.74262 8.7604 5.01235 9.82393 5.15859 10.9113C5.26691 11.6794 5.41419 12.4423 5.52577 13.2104C5.63409 13.936 5.4337 14.2138 4.69494 14.4295C3.36799 14.8161 2.41367 14.5279 1.66191 13.4012C0.58843 11.7914 0.44979 10.0603 1.24163 8.31467C1.42705 7.87892 1.72779 7.49687 2.11429 7.20607C2.50079 6.91527 2.95976 6.72575 3.446 6.65614C3.62257 6.62608 3.8251 6.38455 3.89876 6.19901C5.17372 2.97835 7.56224 0.945614 11.0611 0.209642C15.7547 -0.77822 20.496 1.81116 22.1024 6.1648C22.2302 6.51102 22.3624 6.69034 22.7903 6.72352C23.6038 6.78571 24.1692 7.26772 24.5873 7.91455C25.6575 9.57308 25.4376 12.2817 24.1031 13.7505C23.4282 14.4948 22.5974 14.812 21.5879 14.4761C21.1968 14.3445 20.9921 14.4388 20.7473 14.7581C19.4918 16.3969 17.8226 17.4894 15.7969 18.1C15.694 18.1311 15.59 18.157 15.4871 18.1881C15.4373 18.1974 15.3886 18.2182 15.3182 18.2441Z" fill="white"/>
</svg>
