<svg width="19" height="22" viewBox="0 0 19 22" fill="none" xmlns="http://www.w3.org/2000/svg">
<path d="M3.81634 1.65775C5.20542 2.50029 6.52666 3.34369 7.88632 4.11666C8.92159 4.70584 9.37673 5.54409 9.3612 6.78857C9.32198 9.98009 9.34813 13.1725 9.34813 16.3648V16.8948C9.43309 16.913 9.51905 16.9256 9.60551 16.9325C10.586 16.9325 11.5666 16.9394 12.5471 16.9325C13.1191 16.9283 13.4247 16.6027 13.4279 15.9998C13.4328 15.1976 13.4279 14.3963 13.4279 13.595C13.4279 13.0256 13.7213 12.6614 14.1699 12.6554C14.6185 12.6494 14.9134 13.0153 14.9167 13.583C14.9224 14.4135 14.9298 15.2432 14.9167 16.0737C14.8914 17.5088 13.9525 18.4785 12.5855 18.4914C11.5233 18.5 10.4667 18.4914 9.34732 18.4914C9.34732 18.8796 9.34732 19.2317 9.34732 19.5838C9.32771 21.4579 7.51782 22.5898 5.96124 21.6795C4.38341 20.7536 2.82272 19.79 1.26369 18.8315C0.490704 18.3548 0.160597 17.6136 0.163866 16.6783C0.172037 14.2589 0.163866 11.8404 0.163866 9.42097C0.163866 7.17334 0.206361 4.92485 0.149981 2.67979C0.106675 0.926005 1.40342 -0.0221751 2.68301 -0.000703673C5.95142 0.0542632 9.21984 0.0164736 12.4883 0.0181913C13.9501 0.0181913 14.8987 0.992136 14.9151 2.51833C14.9249 3.44847 14.9208 4.37947 14.9151 5.30962C14.9151 5.91082 14.6487 6.22001 14.1674 6.21571C13.7058 6.21571 13.432 5.87217 13.4263 5.29244C13.4263 4.37604 13.4263 3.45964 13.4263 2.54409C13.4263 1.93259 13.1338 1.58733 12.5675 1.58561C9.69376 1.57788 6.82082 1.58561 3.94706 1.58561C3.92664 1.58647 3.9054 1.6088 3.81634 1.65775Z" fill="white"/>
<path d="M16.1691 10.0574H15.7401C14.1206 10.0574 12.5011 10.0574 10.8825 10.0574C10.4175 10.0574 10.1217 9.82464 10.0392 9.41153C9.99827 9.2501 10.0133 9.07863 10.0815 8.92775C10.1498 8.77687 10.2668 8.65641 10.4118 8.58788C10.5948 8.49083 10.8302 8.4728 11.0426 8.47108C12.6074 8.46249 14.1721 8.46679 15.7377 8.46679H16.165L16.2157 8.35771C15.9828 8.12668 15.7418 7.90423 15.5203 7.66203C15.1674 7.27555 15.1608 6.81091 15.4876 6.48368C15.7932 6.17879 16.2369 6.19682 16.5785 6.55067C17.2567 7.25322 17.93 7.9612 18.5984 8.67463C18.9399 9.0405 18.9375 9.4811 18.5935 9.85041C17.9169 10.5764 17.2338 11.2947 16.5442 12.0053C16.2214 12.3377 15.7818 12.3359 15.4819 12.0336C15.182 11.7313 15.1657 11.289 15.4672 10.9214C15.5839 10.7816 15.7083 10.6491 15.8398 10.5246C15.9665 10.4035 16.1038 10.2944 16.2361 10.1811L16.1691 10.0574Z" fill="white"/>
</svg>
