<svg width="20" height="24" viewBox="0 0 20 24" fill="none" xmlns="http://www.w3.org/2000/svg">
<path d="M19.9975 19.9042C19.9807 19.443 19.9975 18.9809 19.9975 18.5177C19.9975 18.2428 19.9114 18.1219 19.6463 18.0303L18.763 17.7329C18.3752 17.6032 17.9874 17.4745 17.5986 17.3507C17.4701 17.3109 17.3326 17.3088 17.203 17.3448C16.5046 17.5671 15.8121 17.8041 15.1196 18.039C14.8733 18.1229 14.7932 18.234 14.7902 18.4982C14.7902 18.8005 14.7902 19.1017 14.7902 19.404C14.7769 19.673 14.7788 19.9425 14.7962 20.2113C14.8185 20.5107 14.8814 20.8058 14.9831 21.0887C15.1555 21.5123 15.4117 21.8978 15.7369 22.2226C16.1745 22.6454 16.6877 22.9849 17.2504 23.2239C17.3734 23.2573 17.5045 23.2444 17.6184 23.1879C18.1298 22.961 18.5959 22.6457 18.9944 22.2568C19.6631 21.6152 20.0341 20.8479 19.9975 19.9042ZM18.8807 19.5795L18.761 19.7413C18.3778 20.2548 17.9887 20.7641 17.5937 21.2691C17.5599 21.313 17.5167 21.349 17.4673 21.3747C17.4179 21.4004 17.3634 21.4151 17.3076 21.4177C17.2518 21.4204 17.196 21.4111 17.1443 21.3903C17.0925 21.3695 17.046 21.3378 17.0081 21.2974C16.7162 21.0234 16.4314 20.7417 16.1524 20.456C16.079 20.3816 16.038 20.2819 16.038 20.1781C16.038 20.0744 16.079 19.9747 16.1524 19.9003C16.1875 19.8597 16.2307 19.8267 16.2793 19.8032C16.3279 19.7798 16.3809 19.7664 16.435 19.764C16.489 19.7615 16.543 19.77 16.5936 19.7889C16.6442 19.8078 16.6903 19.8368 16.7291 19.8739C16.9003 20.0289 17.0536 20.2044 17.2316 20.3897L18.1319 19.207C18.1627 19.1654 18.1957 19.1254 18.2308 19.0871C18.2949 19.0118 18.3849 18.9624 18.4837 18.9486C18.5825 18.9347 18.683 18.9573 18.7659 19.0121L18.7926 19.0306C18.8774 19.0928 18.9342 19.1854 18.9506 19.2883C18.9671 19.3913 18.942 19.4965 18.8807 19.5814V19.5795Z" fill="white"/>
<path d="M19.0035 16.131C19.0035 12.2603 19.0332 8.3897 18.9877 4.52004C18.9629 2.36535 17.207 0.751767 15.0218 0.749817C11.3795 0.749817 7.73689 0.749817 4.09391 0.749817C1.77616 0.749817 0.0380978 2.3868 0.021281 4.68286C-0.00839574 9.34518 -0.00839574 14.0072 0.021281 18.6688C0.0380978 20.9639 1.78208 22.5853 4.11072 22.5863H14.2859C14.0575 22.27 13.8682 21.9279 13.722 21.5674C13.5705 21.1595 13.4763 20.7331 13.4421 20.3C13.4175 20.0407 13.4115 19.7801 13.4243 19.52C13.4243 19.4898 13.4243 19.4595 13.4243 19.4283V18.9253C13.4243 18.6737 13.4243 18.4212 13.4243 18.1697C13.4312 17.4872 13.7616 17.0319 14.4135 16.8125L14.7014 16.715C15.4185 16.4713 16.1595 16.2197 16.8984 15.9857C17.0554 15.9362 17.2193 15.9115 17.3841 15.9126C17.561 15.9124 17.7368 15.9391 17.9055 15.9916C18.2754 16.1086 18.6464 16.2304 19.0144 16.3543V16.3221C19.0144 16.2582 19.0108 16.1944 19.0035 16.131ZM14.0771 16.3455C12.5603 16.3455 11.0435 16.3455 9.52672 16.3455C8.00991 16.3455 6.4931 16.3455 4.97629 16.3455C4.36693 16.3455 3.98706 16.0452 3.97914 15.5743C3.97123 15.1034 4.35605 14.7855 4.9575 14.7855C7.99112 14.7855 11.0247 14.7855 14.0584 14.7855C14.6974 14.7855 15.0357 15.0556 15.0407 15.5567C15.0456 16.0579 14.7023 16.3445 14.0771 16.3455ZM14.0465 12.4456C12.5297 12.4456 11.0129 12.4456 9.49605 12.4456C7.99638 12.4456 6.49708 12.4456 4.99807 12.4456C4.36002 12.4456 3.96631 12.1307 3.98214 11.6432C3.99599 11.1723 4.3778 10.8847 4.99112 10.8837C8.00759 10.8837 11.0234 10.8837 14.0386 10.8837C14.7043 10.8837 15.0515 11.1664 15.0397 11.6861C15.0288 12.1814 14.6865 12.4456 14.0445 12.4466L14.0465 12.4456ZM14.0593 8.5457C11.0257 8.5457 7.99208 8.5457 4.95846 8.5457C4.35801 8.5457 3.96928 8.22981 3.98016 7.75695C3.99104 7.28408 4.3669 6.98574 4.97725 6.98574C6.50989 6.98574 8.04222 6.98574 9.5742 6.98574C11.0739 6.98574 12.5735 6.98574 14.0732 6.98574C14.6994 6.98574 15.0426 7.27238 15.0377 7.77449C15.0327 8.27661 14.6944 8.5457 14.0573 8.5457H14.0593Z" fill="white"/>
</svg>
