<svg width="21" height="21" viewBox="0 0 21 21" fill="none" xmlns="http://www.w3.org/2000/svg">
<path d="M0 10.5097C0.0191665 7.97769 0.943849 5.53632 2.60642 3.62824C4.26899 1.72017 6.55939 0.471692 9.06237 0.109164C14.6509 -0.710553 19.9398 3.17573 20.8519 8.75719C21.2612 11.2499 20.8159 13.5812 19.5927 15.7814C19.4938 15.9794 19.4668 16.2058 19.5166 16.4215C19.7523 17.3585 20.0307 18.2848 20.287 19.2168C20.4941 19.9717 19.9767 20.4865 19.2226 20.2775C18.2918 20.0209 17.3666 19.7414 16.4308 19.5045C16.2147 19.4563 15.9884 19.4853 15.7914 19.5865C9.5102 23.1801 1.6276 19.598 0.235781 12.4976C0.10888 11.8442 0.0761406 11.1729 0 10.5097ZM14.4913 7.51696C14.5322 5.24716 12.9357 3.5364 10.7489 3.33639C8.83805 3.1577 6.94844 4.64794 6.62341 6.61527C6.56181 6.97704 6.57354 7.34752 6.65783 7.70467C6.77572 8.17109 7.32016 8.44242 7.79584 8.37028C8.34765 8.28831 8.67922 7.86124 8.72425 7.19481C8.77173 6.47673 9.1254 5.95457 9.77219 5.65702C10.4034 5.36684 11.0208 5.43241 11.589 5.84145C12.5952 6.56772 12.5935 7.97764 11.5955 8.79244C10.229 9.90315 9.44225 11.3065 9.46681 13.1042C9.46701 13.2411 9.49443 13.3767 9.54744 13.5029C9.60045 13.6292 9.67799 13.7436 9.77559 13.8396C9.87318 13.9355 9.9889 14.0111 10.1159 14.0619C10.243 14.1127 10.3788 14.1376 10.5156 14.1354C11.1034 14.1411 11.584 13.7198 11.5922 13.1353C11.6069 11.9975 12.1097 11.1311 12.9791 10.4352C13.9591 9.6392 14.4569 8.60062 14.4888 7.51696H14.4913ZM11.5914 16.6216C11.5904 16.411 11.5272 16.2055 11.4096 16.0309C11.2921 15.8563 11.1255 15.7205 10.931 15.6406C10.7364 15.5607 10.5226 15.5403 10.3164 15.5819C10.1103 15.6236 9.92111 15.7255 9.77275 15.8747C9.62439 16.0239 9.52351 16.2138 9.48284 16.4204C9.44217 16.627 9.46354 16.841 9.54424 17.0354C9.62494 17.2298 9.76133 17.396 9.93625 17.5129C10.1112 17.6297 10.3168 17.6921 10.5271 17.6921C10.8091 17.6885 11.0784 17.5744 11.2774 17.3742C11.4763 17.1741 11.5891 16.9039 11.5914 16.6216Z" fill="white"/>
</svg>
