<svg width="23" height="23" viewBox="0 0 23 23" fill="none" xmlns="http://www.w3.org/2000/svg">
<g clip-path="url(#clip0_238_789)">
<path d="M11.4175 0.500006C13.5958 0.497693 15.7257 1.14181 17.5375 2.35074C19.3492 3.55967 20.7613 5.27903 21.5948 7.29098C22.4283 9.30293 22.6457 11.5169 22.2194 13.6525C21.7932 15.7881 20.7425 17.7491 19.2004 19.2872C17.6584 20.8253 15.6944 21.8711 13.5573 22.2923C11.4201 22.7135 9.20605 22.491 7.1955 21.6531C5.18495 20.8152 3.46842 19.3995 2.26336 17.5854C1.05831 15.7713 0.418968 13.6405 0.426332 11.4628C0.437199 8.55423 1.59949 5.76826 3.65912 3.71395C5.71874 1.65965 8.50815 0.504126 11.4175 0.500006ZM8.1748 10.6798C8.55641 10.6083 8.94238 10.5626 9.33012 10.5427C9.93323 10.5427 10.1741 10.7972 10.1134 11.4021C10.0508 11.9116 9.95195 12.416 9.8177 12.9115C9.55922 14.0077 9.20283 15.0884 9.03443 16.1984C8.86994 17.3534 9.67084 18.1345 10.8418 18.2226C11.7015 18.2891 12.4651 18.0072 13.2543 17.739C13.7438 17.5726 13.8163 17.2672 13.828 16.8777C13.4392 16.9434 13.0469 16.9872 12.6531 17.0088C12.05 17.0088 11.7935 16.7622 11.8444 16.1651C11.9011 15.6549 11.9961 15.1497 12.1283 14.6538C12.3849 13.5712 12.7275 12.5004 12.9116 11.4119C13.1074 10.2628 12.4005 9.48559 11.2628 9.34072C10.3856 9.2311 9.60426 9.5267 8.79945 9.78119C8.35495 9.92215 8.14934 10.2041 8.1748 10.6719V10.6798ZM10.7204 6.30246C10.7327 6.73414 10.9156 7.14337 11.229 7.44055C11.5424 7.73774 11.9608 7.89869 12.3927 7.88816C13.2895 7.88816 14.0591 7.18145 14.0767 6.34357C14.0943 5.5057 13.3306 4.74613 12.4123 4.73243C11.9845 4.72215 11.5695 4.87893 11.2555 5.16951C10.9414 5.46008 10.753 5.86157 10.7302 6.28876L10.7204 6.30246Z" fill="#547A83"/>
</g>
<defs>
<clipPath id="clip0_238_789">
<rect width="22" height="22" fill="white" transform="translate(0.42627 0.5)"/>
</clipPath>
</defs>
</svg>
