<svg width="19" height="15" viewBox="0 0 19 15" fill="none" xmlns="http://www.w3.org/2000/svg">
<path d="M1.97803 6.59668C1.42574 6.59668 0.978027 7.04439 0.978027 7.59668C0.978027 8.14896 1.42574 8.59668 1.97803 8.59668L1.97803 6.59668ZM18.4389 8.30379C18.8294 7.91327 18.8294 7.2801 18.4389 6.88958L12.0749 0.525614C11.6844 0.135089 11.0512 0.135089 10.6607 0.525613C10.2702 0.916138 10.2702 1.5493 10.6607 1.93983L16.3175 7.59668L10.6607 13.2535C10.2702 13.6441 10.2702 14.2772 10.6607 14.6677C11.0512 15.0583 11.6844 15.0583 12.0749 14.6677L18.4389 8.30379ZM1.97803 8.59668L17.7318 8.59668L17.7318 6.59668L1.97803 6.59668L1.97803 8.59668Z" fill="#001F27"/>
</svg>
