<svg width="14" height="18" viewBox="0 0 14 18" fill="none" xmlns="http://www.w3.org/2000/svg">
<g clip-path="url(#clip0_160_2322)">
<path d="M2.09155 0.502258H11.9021C12.4076 0.502258 12.7969 0.672136 13.0593 0.934875C13.3219 1.19774 13.4936 1.58991 13.4949 2.10187V10.64L13.4968 10.6351C13.4993 12.4359 13.504 14.2338 13.4919 16.0325C13.4858 17.0246 12.4953 17.733 11.5593 17.4251C11.3495 17.3469 11.1542 17.2341 10.9822 17.0911L10.9734 17.0833L9.47241 15.8763C8.97413 15.4719 8.47546 15.0661 7.96948 14.6595C7.69584 14.4396 7.38285 14.2415 7.00659 14.2396C6.62844 14.2376 6.3159 14.4341 6.04468 14.6517C5.03881 15.4585 4.03574 16.269 3.03589 17.0833C2.75709 17.3096 2.49038 17.4354 2.23413 17.4778C1.98198 17.5196 1.7055 17.4867 1.39233 17.3431C1.07372 17.197 0.858645 17.0072 0.720459 16.7874C0.581723 16.5666 0.500732 16.2839 0.500732 15.9241V2.06183C0.500732 1.57448 0.671269 1.19211 0.936279 0.931946C1.20205 0.671062 1.594 0.50231 2.09155 0.502258ZM2.19604 0.697571C1.79314 0.697598 1.37739 0.772366 1.07788 1.07648C0.780381 1.37858 0.707803 1.79549 0.707764 2.2005L0.704834 8.98273C0.704834 11.2803 0.704685 13.5785 0.700928 15.8763V15.8773C0.700943 16.1136 0.738042 16.3655 0.860107 16.5989C0.986879 16.8412 1.1858 17.0255 1.44312 17.1507C1.71349 17.2822 1.98837 17.3117 2.25269 17.2503C2.50235 17.1922 2.70947 17.0606 2.87476 16.929L2.87866 16.9261C2.92523 16.8883 2.97308 16.851 3.02222 16.8118C3.07074 16.7731 3.1213 16.7326 3.17163 16.6917L3.17065 16.6907L5.99683 14.4046C6.33647 14.1331 6.683 14.0163 7.00854 14.0179C7.33449 14.0196 7.68019 14.1402 8.01636 14.4124C9.02909 15.2321 10.0407 16.044 11.0437 16.8675C11.2237 17.0156 11.4456 17.1622 11.7107 17.2298C11.9916 17.3014 12.2858 17.2755 12.5769 17.1351L12.5759 17.1341C12.8636 16.9954 13.0605 16.7843 13.1736 16.5247C13.279 16.2826 13.3 16.0266 13.2996 15.8089C13.292 11.2633 13.2907 6.71774 13.2947 2.17218V2.1712C13.2946 1.77309 13.2165 1.36533 12.9197 1.06964C12.6231 0.774339 12.2148 0.697571 11.8171 0.697571H2.19604Z" fill="#001F27" stroke="black"/>
</g>
<defs>
<clipPath id="clip0_160_2322">
<rect width="14" height="18" fill="white"/>
</clipPath>
</defs>
</svg>
