<svg width="106" height="35" viewBox="0 0 106 35" fill="none" xmlns="http://www.w3.org/2000/svg">
<path d="M0.6211 20.3452H5.80621C6.05567 22.4655 8.26514 23.8553 11.1161 23.8553C13.9848 23.8553 15.9448 22.4833 15.9448 20.5946C15.9448 18.9197 14.7153 17.9931 11.615 17.2982L8.26514 16.5677C3.52548 15.552 1.19128 13.1466 1.19128 9.38692C1.19128 4.64726 5.28949 1.51125 11.027 1.51125C17.0139 1.51125 20.7736 4.59381 20.8626 9.24437H15.8201C15.6419 7.07055 13.7353 5.75199 11.0448 5.75199C8.38986 5.75199 6.60804 7.01709 6.60804 8.92364C6.60804 10.5095 7.85532 11.4004 10.8131 12.0775L13.9313 12.7368C19.0808 13.8415 21.3259 16.0509 21.3259 19.971C21.3259 24.9601 17.2812 28.1139 10.9022 28.1139C4.7193 28.1139 0.781465 25.1739 0.6211 20.3452ZM23.2603 27.6685V8.05055H28.4632V27.6685H23.2603ZM25.8617 5.91236C24.3294 5.91236 23.0643 4.73635 23.0643 3.18616C23.0643 1.63598 24.3294 0.477788 25.8617 0.477788C27.4119 0.477788 28.677 1.63598 28.677 3.18616C28.677 4.73635 27.4119 5.91236 25.8617 5.91236ZM39.9838 23.5168C42.6922 23.5168 44.4383 21.343 44.4383 17.8328C44.4383 14.3048 42.6922 12.024 39.9838 12.024C37.2932 12.024 35.5827 14.2691 35.5827 17.815C35.5827 21.3786 37.2754 23.5168 39.9838 23.5168ZM39.9303 34.8492C34.7808 34.8492 31.1637 32.5863 30.8965 29.0583H36.0281C36.3667 30.359 38.006 31.1787 40.0551 31.1787C42.6922 31.1787 44.4205 29.8245 44.4205 27.615V24.1048H44.3136C43.3693 26.2074 41.0707 27.5437 38.2376 27.5437C33.4623 27.5437 30.255 23.8375 30.255 17.7971C30.255 11.6498 33.3554 7.81891 38.3267 7.81891C41.142 7.81891 43.3693 9.22656 44.4027 11.4004H44.4918V8.05055H49.6235V27.223C49.6235 31.8914 45.8282 34.8492 39.9303 34.8492ZM52.0567 27.6685V8.05055H57.0815V11.5607H57.1884C58.3109 9.08401 60.3066 7.76546 63.3179 7.76546C67.6655 7.76546 70.1244 10.5095 70.1244 15.0888V27.6685H64.9215V16.1757C64.9215 13.5742 63.7099 12.0953 61.2509 12.0953C58.7564 12.0953 57.2597 13.8771 57.2597 16.4786V27.6685H52.0567ZM84.987 27.6685H79.6059V1.9567H84.987V27.6685ZM87.7944 27.6685V8.05055H92.8192V11.5607H92.9261C94.0487 9.08401 96.0443 7.76546 99.0556 7.76546C103.403 7.76546 105.862 10.5095 105.862 15.0888V27.6685H100.659V16.1757C100.659 13.5742 99.4476 12.0953 96.9887 12.0953C94.4941 12.0953 92.9974 13.8771 92.9974 16.4786V27.6685H87.7944Z" fill="url(#paint0_linear_154_405)"/>
<defs>
<linearGradient id="paint0_linear_154_405" x1="-3.08644" y1="-7.33155" x2="113.239" y2="-2.86763" gradientUnits="userSpaceOnUse">
<stop stop-color="#003846"/>
<stop offset="1" stop-color="#007491"/>
</linearGradient>
</defs>
</svg>
