<svg width="123" height="35" viewBox="0 0 123 35" fill="none" xmlns="http://www.w3.org/2000/svg">
<path d="M0.210879 20.3452H5.39599C5.64545 22.4655 7.85491 23.8553 10.7058 23.8553C13.5746 23.8553 15.5346 22.4833 15.5346 20.5946C15.5346 18.9197 14.3051 17.9931 11.2047 17.2982L7.85491 16.5677C3.11526 15.552 0.781064 13.1466 0.781064 9.38692C0.781064 4.64726 4.87926 1.51125 10.6167 1.51125C16.6037 1.51125 20.3633 4.59381 20.4524 9.24437H15.4099C15.2317 7.07055 13.3251 5.75199 10.6346 5.75199C7.97964 5.75199 6.19782 7.01709 6.19782 8.92364C6.19782 10.5095 7.44509 11.4004 10.4029 12.0775L13.5211 12.7368C18.6706 13.8415 20.9157 16.0509 20.9157 19.971C20.9157 24.9601 16.871 28.1139 10.492 28.1139C4.30908 28.1139 0.371244 25.1739 0.210879 20.3452ZM22.8501 27.6685V8.05055H28.053V27.6685H22.8501ZM25.4515 5.91236C23.9191 5.91236 22.6541 4.73635 22.6541 3.18616C22.6541 1.63598 23.9191 0.477788 25.4515 0.477788C27.0017 0.477788 28.2668 1.63598 28.2668 3.18616C28.2668 4.73635 27.0017 5.91236 25.4515 5.91236ZM39.5736 23.5168C42.2819 23.5168 44.0281 21.343 44.0281 17.8328C44.0281 14.3048 42.2819 12.024 39.5736 12.024C36.883 12.024 35.1724 14.2691 35.1724 17.815C35.1724 21.3786 36.8652 23.5168 39.5736 23.5168ZM39.5201 34.8492C34.3706 34.8492 30.7535 32.5863 30.4862 29.0583H35.6179C35.9565 30.359 37.5957 31.1787 39.6448 31.1787C42.2819 31.1787 44.0103 29.8245 44.0103 27.615V24.1048H43.9034C42.959 26.2074 40.6605 27.5437 37.8274 27.5437C33.0521 27.5437 29.8448 23.8375 29.8448 17.7971C29.8448 11.6498 32.9452 7.81891 37.9165 7.81891C40.7317 7.81891 42.959 9.22656 43.9925 11.4004H44.0816V8.05055H49.2132V27.223C49.2132 31.8914 45.4179 34.8492 39.5201 34.8492ZM51.6465 27.6685V8.05055H56.6713V11.5607H56.7782C57.9007 9.08401 59.8964 7.76546 62.9076 7.76546C67.2553 7.76546 69.7142 10.5095 69.7142 15.0888V27.6685H64.5113V16.1757C64.5113 13.5742 63.2996 12.0953 60.8407 12.0953C58.3462 12.0953 56.8494 13.8771 56.8494 16.4786V27.6685H51.6465ZM84.5768 1.9567V18.0466C84.5768 21.343 86.519 23.499 89.9757 23.499C93.4146 23.499 95.3568 21.343 95.3568 18.0466V1.9567H100.738V18.5811C100.738 24.2474 96.5507 28.1139 89.9757 28.1139C83.383 28.1139 79.1957 24.2474 79.1957 18.5811V1.9567H84.5768ZM114.896 7.81891C119.867 7.81891 122.949 11.6142 122.949 17.8506C122.949 24.087 119.885 27.9001 114.967 27.9001C112.134 27.9001 109.942 26.5994 108.873 24.3721H108.766V34.083H103.563V8.05055H108.695V11.4004H108.802C109.835 9.19092 112.134 7.81891 114.896 7.81891ZM113.167 23.695C115.858 23.695 117.622 21.4142 117.622 17.8506C117.622 14.3226 115.858 12.024 113.167 12.024C110.512 12.024 108.748 14.3582 108.748 17.8684C108.748 21.3964 110.512 23.695 113.167 23.695Z" fill="url(#paint0_linear_168_2608)"/>
<defs>
<linearGradient id="paint0_linear_168_2608" x1="-3.39271" y1="-7.33155" x2="129.947" y2="-1.46366" gradientUnits="userSpaceOnUse">
<stop stop-color="#003846"/>
<stop offset="1" stop-color="#007491"/>
</linearGradient>
</defs>
</svg>
